<svg width="1295" height="37" viewBox="0 0 1295 37" fill="none" xmlns="http://www.w3.org/2000/svg">
<rect width="156" height="37" rx="18.5" fill="#66C07F" fill-opacity="0.06"/>
<path d="M20.332 18.0002L24.4568 22.125L33.2957 13.2861" stroke="#66C07F" stroke-width="2" stroke-linecap="round" stroke-linejoin="round"/>
<path d="M45.326 24.112C44.5793 24.112 43.8653 24 43.184 23.776C42.5027 23.5427 41.966 23.244 41.574 22.88L42.092 21.788C42.4653 22.1147 42.9413 22.3853 43.52 22.6C44.0987 22.8147 44.7007 22.922 45.326 22.922C45.8953 22.922 46.3573 22.8567 46.712 22.726C47.0667 22.5953 47.328 22.418 47.496 22.194C47.664 21.9607 47.748 21.6993 47.748 21.41C47.748 21.074 47.636 20.8033 47.412 20.598C47.1973 20.3927 46.9127 20.2293 46.558 20.108C46.2127 19.9773 45.83 19.8653 45.41 19.772C44.99 19.6787 44.5653 19.5713 44.136 19.45C43.716 19.3193 43.3287 19.156 42.974 18.96C42.6287 18.764 42.3487 18.5027 42.134 18.176C41.9193 17.84 41.812 17.4107 41.812 16.888C41.812 16.384 41.9427 15.922 42.204 15.502C42.4747 15.0727 42.8853 14.732 43.436 14.48C43.996 14.2187 44.7053 14.088 45.564 14.088C46.1333 14.088 46.698 14.1627 47.258 14.312C47.818 14.4613 48.3033 14.676 48.714 14.956L48.252 16.076C47.832 15.796 47.3887 15.5953 46.922 15.474C46.4553 15.3433 46.0027 15.278 45.564 15.278C45.0133 15.278 44.5607 15.348 44.206 15.488C43.8513 15.628 43.59 15.8147 43.422 16.048C43.2633 16.2813 43.184 16.5427 43.184 16.832C43.184 17.1773 43.2913 17.4527 43.506 17.658C43.73 17.8633 44.0147 18.0267 44.36 18.148C44.7147 18.2693 45.102 18.3813 45.522 18.484C45.942 18.5773 46.362 18.6847 46.782 18.806C47.2113 18.9273 47.5987 19.086 47.944 19.282C48.2987 19.478 48.5833 19.7393 48.798 20.066C49.0127 20.3927 49.12 20.8127 49.12 21.326C49.12 21.8207 48.9847 22.2827 48.714 22.712C48.4433 23.132 48.0233 23.4727 47.454 23.734C46.894 23.986 46.1847 24.112 45.326 24.112ZM55.5753 24V22.432L55.5053 22.138V19.464C55.5053 18.8947 55.3373 18.456 55.0013 18.148C54.6746 17.8307 54.18 17.672 53.5173 17.672C53.0786 17.672 52.6493 17.7467 52.2293 17.896C51.8093 18.036 51.4546 18.2273 51.1653 18.47L50.6053 17.462C50.988 17.154 51.4453 16.9207 51.9773 16.762C52.5186 16.594 53.0833 16.51 53.6713 16.51C54.6886 16.51 55.4726 16.7573 56.0233 17.252C56.574 17.7467 56.8493 18.5027 56.8493 19.52V24H55.5753ZM53.1393 24.084C52.5886 24.084 52.1033 23.9907 51.6833 23.804C51.2726 23.6173 50.9553 23.3607 50.7313 23.034C50.5073 22.698 50.3953 22.32 50.3953 21.9C50.3953 21.4987 50.4886 21.1347 50.6753 20.808C50.8713 20.4813 51.184 20.22 51.6133 20.024C52.052 19.828 52.64 19.73 53.3773 19.73H55.7293V20.696H53.4333C52.7613 20.696 52.3086 20.808 52.0753 21.032C51.842 21.256 51.7253 21.5267 51.7253 21.844C51.7253 22.208 51.87 22.502 52.1593 22.726C52.4486 22.9407 52.85 23.048 53.3633 23.048C53.8673 23.048 54.306 22.936 54.6793 22.712C55.062 22.488 55.3373 22.1613 55.5053 21.732L55.7713 22.656C55.594 23.0947 55.2813 23.4447 54.8333 23.706C54.3853 23.958 53.8206 24.084 53.1393 24.084ZM59.3365 24V13.612H60.6805V24H59.3365ZM66.5507 24.084C65.7573 24.084 65.0573 23.9207 64.4507 23.594C63.8533 23.2673 63.3867 22.8193 63.0507 22.25C62.724 21.6807 62.5607 21.0273 62.5607 20.29C62.5607 19.5527 62.7193 18.8993 63.0367 18.33C63.3633 17.7607 63.8067 17.3173 64.3667 17C64.936 16.6733 65.5753 16.51 66.2847 16.51C67.0033 16.51 67.638 16.6687 68.1887 16.986C68.7393 17.3033 69.1687 17.7513 69.4767 18.33C69.794 18.8993 69.9527 19.5667 69.9527 20.332C69.9527 20.388 69.948 20.4533 69.9387 20.528C69.9387 20.6027 69.934 20.6727 69.9247 20.738H63.6107V19.772H69.2247L68.6787 20.108C68.688 19.632 68.59 19.2073 68.3847 18.834C68.1793 18.4607 67.8947 18.1713 67.5307 17.966C67.176 17.7513 66.7607 17.644 66.2847 17.644C65.818 17.644 65.4027 17.7513 65.0387 17.966C64.6747 18.1713 64.39 18.4653 64.1847 18.848C63.9793 19.2213 63.8767 19.6507 63.8767 20.136V20.36C63.8767 20.8547 63.9887 21.298 64.2127 21.69C64.446 22.0727 64.768 22.3713 65.1787 22.586C65.5893 22.8007 66.0607 22.908 66.5927 22.908C67.0313 22.908 67.428 22.8333 67.7827 22.684C68.1467 22.5347 68.464 22.3107 68.7347 22.012L69.4767 22.88C69.1407 23.272 68.7207 23.5707 68.2167 23.776C67.722 23.9813 67.1667 24.084 66.5507 24.084ZM73.9469 24.084C73.3309 24.084 72.7429 24 72.1829 23.832C71.6323 23.664 71.1983 23.4587 70.8809 23.216L71.4409 22.152C71.7583 22.3667 72.1503 22.5487 72.6169 22.698C73.0836 22.8473 73.5596 22.922 74.0449 22.922C74.6703 22.922 75.1183 22.8333 75.3889 22.656C75.6689 22.4787 75.8089 22.2313 75.8089 21.914C75.8089 21.6807 75.7249 21.4987 75.5569 21.368C75.3889 21.2373 75.1649 21.1393 74.8849 21.074C74.6143 21.0087 74.3109 20.9527 73.9749 20.906C73.6389 20.85 73.3029 20.7847 72.9669 20.71C72.6309 20.626 72.3229 20.514 72.0429 20.374C71.7629 20.2247 71.5389 20.024 71.3709 19.772C71.2029 19.5107 71.1189 19.1653 71.1189 18.736C71.1189 18.288 71.2449 17.896 71.4969 17.56C71.7489 17.224 72.1036 16.9673 72.5609 16.79C73.0276 16.6033 73.5783 16.51 74.2129 16.51C74.6983 16.51 75.1883 16.5707 75.6829 16.692C76.1869 16.804 76.5976 16.9673 76.9149 17.182L76.3409 18.246C76.0049 18.022 75.6549 17.868 75.2909 17.784C74.9269 17.7 74.5629 17.658 74.1989 17.658C73.6109 17.658 73.1723 17.756 72.8829 17.952C72.5936 18.1387 72.4489 18.3813 72.4489 18.68C72.4489 18.932 72.5329 19.128 72.7009 19.268C72.8783 19.3987 73.1023 19.5013 73.3729 19.576C73.6529 19.6507 73.9609 19.716 74.2969 19.772C74.6329 19.8187 74.9689 19.884 75.3049 19.968C75.6409 20.0427 75.9443 20.15 76.2149 20.29C76.4949 20.43 76.7189 20.626 76.8869 20.878C77.0643 21.13 77.1529 21.466 77.1529 21.886C77.1529 22.334 77.0223 22.7213 76.7609 23.048C76.4996 23.3747 76.1309 23.6313 75.6549 23.818C75.1789 23.9953 74.6096 24.084 73.9469 24.084ZM82.7884 24V14.2H86.6104C87.469 14.2 88.2017 14.3353 88.8084 14.606C89.415 14.8767 89.8817 15.2687 90.2084 15.782C90.535 16.2953 90.6984 16.9067 90.6984 17.616C90.6984 18.3253 90.535 18.9367 90.2084 19.45C89.8817 19.954 89.415 20.346 88.8084 20.626C88.2017 20.8967 87.469 21.032 86.6104 21.032H83.5584L84.1884 20.374V24H82.7884ZM84.1884 20.514L83.5584 19.814H86.5684C87.4644 19.814 88.141 19.6227 88.5984 19.24C89.065 18.8573 89.2984 18.316 89.2984 17.616C89.2984 16.916 89.065 16.3747 88.5984 15.992C88.141 15.6093 87.4644 15.418 86.5684 15.418H83.5584L84.1884 14.718V20.514ZM92.6959 24V16.58H94.0399V24H92.6959ZM93.3679 15.152C93.1065 15.152 92.8872 15.068 92.7099 14.9C92.5419 14.732 92.4579 14.5267 92.4579 14.284C92.4579 14.032 92.5419 13.822 92.7099 13.654C92.8872 13.486 93.1065 13.402 93.3679 13.402C93.6292 13.402 93.8439 13.486 94.0119 13.654C94.1892 13.8127 94.2779 14.0133 94.2779 14.256C94.2779 14.508 94.1939 14.7227 94.0259 14.9C93.8579 15.068 93.6385 15.152 93.3679 15.152ZM100.54 24.084C99.924 24.084 99.3594 23.944 98.846 23.664C98.342 23.3747 97.936 22.95 97.628 22.39C97.3294 21.83 97.18 21.13 97.18 20.29C97.18 19.45 97.3247 18.75 97.614 18.19C97.9127 17.63 98.314 17.21 98.818 16.93C99.3314 16.65 99.9054 16.51 100.54 16.51C101.268 16.51 101.912 16.6687 102.472 16.986C103.032 17.3033 103.475 17.7467 103.802 18.316C104.129 18.876 104.292 19.534 104.292 20.29C104.292 21.046 104.129 21.7087 103.802 22.278C103.475 22.8473 103.032 23.2907 102.472 23.608C101.912 23.9253 101.268 24.084 100.54 24.084ZM96.606 26.716V16.58H97.894V18.582L97.81 20.304L97.95 22.026V26.716H96.606ZM100.428 22.908C100.904 22.908 101.329 22.8007 101.702 22.586C102.085 22.3713 102.383 22.068 102.598 21.676C102.822 21.2747 102.934 20.8127 102.934 20.29C102.934 19.758 102.822 19.3007 102.598 18.918C102.383 18.526 102.085 18.2227 101.702 18.008C101.329 17.7933 100.904 17.686 100.428 17.686C99.9614 17.686 99.5367 17.7933 99.154 18.008C98.7807 18.2227 98.482 18.526 98.258 18.918C98.0434 19.3007 97.936 19.758 97.936 20.29C97.936 20.8127 98.0434 21.2747 98.258 21.676C98.482 22.068 98.7807 22.3713 99.154 22.586C99.5367 22.8007 99.9614 22.908 100.428 22.908ZM109.453 24.084C108.66 24.084 107.96 23.9207 107.353 23.594C106.756 23.2673 106.289 22.8193 105.953 22.25C105.626 21.6807 105.463 21.0273 105.463 20.29C105.463 19.5527 105.622 18.8993 105.939 18.33C106.266 17.7607 106.709 17.3173 107.269 17C107.838 16.6733 108.478 16.51 109.187 16.51C109.906 16.51 110.54 16.6687 111.091 16.986C111.642 17.3033 112.071 17.7513 112.379 18.33C112.696 18.8993 112.855 19.5667 112.855 20.332C112.855 20.388 112.85 20.4533 112.841 20.528C112.841 20.6027 112.836 20.6727 112.827 20.738H106.513V19.772H112.127L111.581 20.108C111.59 19.632 111.492 19.2073 111.287 18.834C111.082 18.4607 110.797 18.1713 110.433 17.966C110.078 17.7513 109.663 17.644 109.187 17.644C108.72 17.644 108.305 17.7513 107.941 17.966C107.577 18.1713 107.292 18.4653 107.087 18.848C106.882 19.2213 106.779 19.6507 106.779 20.136V20.36C106.779 20.8547 106.891 21.298 107.115 21.69C107.348 22.0727 107.67 22.3713 108.081 22.586C108.492 22.8007 108.963 22.908 109.495 22.908C109.934 22.908 110.33 22.8333 110.685 22.684C111.049 22.5347 111.366 22.3107 111.637 22.012L112.379 22.88C112.043 23.272 111.623 23.5707 111.119 23.776C110.624 23.9813 110.069 24.084 109.453 24.084ZM114.721 24V13.612H116.065V24H114.721ZM118.631 24V16.58H119.975V24H118.631ZM119.303 15.152C119.042 15.152 118.823 15.068 118.645 14.9C118.477 14.732 118.393 14.5267 118.393 14.284C118.393 14.032 118.477 13.822 118.645 13.654C118.823 13.486 119.042 13.402 119.303 13.402C119.565 13.402 119.779 13.486 119.947 13.654C120.125 13.8127 120.213 14.0133 120.213 14.256C120.213 14.508 120.129 14.7227 119.961 14.9C119.793 15.068 119.574 15.152 119.303 15.152ZM126.504 16.51C127.11 16.51 127.642 16.6267 128.1 16.86C128.566 17.0933 128.93 17.448 129.192 17.924C129.453 18.4 129.584 19.002 129.584 19.73V24H128.24V19.884C128.24 19.1653 128.062 18.624 127.708 18.26C127.362 17.896 126.872 17.714 126.238 17.714C125.762 17.714 125.346 17.8073 124.992 17.994C124.637 18.1807 124.362 18.456 124.166 18.82C123.979 19.184 123.886 19.6367 123.886 20.178V24H122.542V16.58H123.83V18.582L123.62 18.05C123.862 17.5647 124.236 17.1867 124.74 16.916C125.244 16.6453 125.832 16.51 126.504 16.51ZM135.375 24.084C134.582 24.084 133.882 23.9207 133.275 23.594C132.678 23.2673 132.211 22.8193 131.875 22.25C131.548 21.6807 131.385 21.0273 131.385 20.29C131.385 19.5527 131.544 18.8993 131.861 18.33C132.188 17.7607 132.631 17.3173 133.191 17C133.76 16.6733 134.4 16.51 135.109 16.51C135.828 16.51 136.462 16.6687 137.013 16.986C137.564 17.3033 137.993 17.7513 138.301 18.33C138.618 18.8993 138.777 19.5667 138.777 20.332C138.777 20.388 138.772 20.4533 138.763 20.528C138.763 20.6027 138.758 20.6727 138.749 20.738H132.435V19.772H138.049L137.503 20.108C137.512 19.632 137.414 19.2073 137.209 18.834C137.004 18.4607 136.719 18.1713 136.355 17.966C136 17.7513 135.585 17.644 135.109 17.644C134.642 17.644 134.227 17.7513 133.863 17.966C133.499 18.1713 133.214 18.4653 133.009 18.848C132.804 19.2213 132.701 19.6507 132.701 20.136V20.36C132.701 20.8547 132.813 21.298 133.037 21.69C133.27 22.0727 133.592 22.3713 134.003 22.586C134.414 22.8007 134.885 22.908 135.417 22.908C135.856 22.908 136.252 22.8333 136.607 22.684C136.971 22.5347 137.288 22.3107 137.559 22.012L138.301 22.88C137.965 23.272 137.545 23.5707 137.041 23.776C136.546 23.9813 135.991 24.084 135.375 24.084Z" fill="#66C07F"/>
<rect x="174" width="156" height="37" rx="18.5" fill="#EA536B" fill-opacity="0.06"/>
<path d="M191.332 18.0002L195.457 22.125L204.296 13.2861" stroke="#EA536B" stroke-width="2" stroke-linecap="round" stroke-linejoin="round"/>
<path d="M217.47 24V14.2H218.87V22.782H224.176V24H217.47ZM228.795 24.084C228.001 24.084 227.301 23.9207 226.695 23.594C226.097 23.2673 225.631 22.8193 225.295 22.25C224.968 21.6807 224.805 21.0273 224.805 20.29C224.805 19.5527 224.963 18.8993 225.281 18.33C225.607 17.7607 226.051 17.3173 226.611 17C227.18 16.6733 227.819 16.51 228.529 16.51C229.247 16.51 229.882 16.6687 230.433 16.986C230.983 17.3033 231.413 17.7513 231.721 18.33C232.038 18.8993 232.197 19.5667 232.197 20.332C232.197 20.388 232.192 20.4533 232.183 20.528C232.183 20.6027 232.178 20.6727 232.169 20.738H225.855V19.772H231.469L230.923 20.108C230.932 19.632 230.834 19.2073 230.629 18.834C230.423 18.4607 230.139 18.1713 229.775 17.966C229.42 17.7513 229.005 17.644 228.529 17.644C228.062 17.644 227.647 17.7513 227.283 17.966C226.919 18.1713 226.634 18.4653 226.429 18.848C226.223 19.2213 226.121 19.6507 226.121 20.136V20.36C226.121 20.8547 226.233 21.298 226.457 21.69C226.69 22.0727 227.012 22.3713 227.423 22.586C227.833 22.8007 228.305 22.908 228.837 22.908C229.275 22.908 229.672 22.8333 230.027 22.684C230.391 22.5347 230.708 22.3107 230.979 22.012L231.721 22.88C231.385 23.272 230.965 23.5707 230.461 23.776C229.966 23.9813 229.411 24.084 228.795 24.084ZM238.464 24V22.432L238.394 22.138V19.464C238.394 18.8947 238.226 18.456 237.89 18.148C237.563 17.8307 237.069 17.672 236.406 17.672C235.967 17.672 235.538 17.7467 235.118 17.896C234.698 18.036 234.343 18.2273 234.054 18.47L233.494 17.462C233.877 17.154 234.334 16.9207 234.866 16.762C235.407 16.594 235.972 16.51 236.56 16.51C237.577 16.51 238.361 16.7573 238.912 17.252C239.463 17.7467 239.738 18.5027 239.738 19.52V24H238.464ZM236.028 24.084C235.477 24.084 234.992 23.9907 234.572 23.804C234.161 23.6173 233.844 23.3607 233.62 23.034C233.396 22.698 233.284 22.32 233.284 21.9C233.284 21.4987 233.377 21.1347 233.564 20.808C233.76 20.4813 234.073 20.22 234.502 20.024C234.941 19.828 235.529 19.73 236.266 19.73H238.618V20.696H236.322C235.65 20.696 235.197 20.808 234.964 21.032C234.731 21.256 234.614 21.5267 234.614 21.844C234.614 22.208 234.759 22.502 235.048 22.726C235.337 22.9407 235.739 23.048 236.252 23.048C236.756 23.048 237.195 22.936 237.568 22.712C237.951 22.488 238.226 22.1613 238.394 21.732L238.66 22.656C238.483 23.0947 238.17 23.4447 237.722 23.706C237.274 23.958 236.709 24.084 236.028 24.084ZM245.291 24.084C244.573 24.084 243.929 23.9253 243.359 23.608C242.799 23.2907 242.356 22.8473 242.029 22.278C241.703 21.7087 241.539 21.046 241.539 20.29C241.539 19.534 241.703 18.876 242.029 18.316C242.356 17.7467 242.799 17.3033 243.359 16.986C243.929 16.6687 244.573 16.51 245.291 16.51C245.917 16.51 246.481 16.65 246.985 16.93C247.489 17.21 247.891 17.63 248.189 18.19C248.497 18.75 248.651 19.45 248.651 20.29C248.651 21.13 248.502 21.83 248.203 22.39C247.914 22.95 247.517 23.3747 247.013 23.664C246.509 23.944 245.935 24.084 245.291 24.084ZM245.403 22.908C245.87 22.908 246.29 22.8007 246.663 22.586C247.046 22.3713 247.345 22.068 247.559 21.676C247.783 21.2747 247.895 20.8127 247.895 20.29C247.895 19.758 247.783 19.3007 247.559 18.918C247.345 18.526 247.046 18.2227 246.663 18.008C246.29 17.7933 245.87 17.686 245.403 17.686C244.927 17.686 244.503 17.7933 244.129 18.008C243.756 18.2227 243.457 18.526 243.233 18.918C243.009 19.3007 242.897 19.758 242.897 20.29C242.897 20.8127 243.009 21.2747 243.233 21.676C243.457 22.068 243.756 22.3713 244.129 22.586C244.503 22.8007 244.927 22.908 245.403 22.908ZM247.937 24V21.998L248.021 20.276L247.881 18.554V13.612H249.225V24H247.937ZM257.67 24V15.418H254.31V14.2H262.416V15.418H259.056V24H257.67ZM263.567 24V16.58H264.855V18.596L264.729 18.092C264.934 17.5787 265.28 17.1867 265.765 16.916C266.25 16.6453 266.848 16.51 267.557 16.51V17.812C267.501 17.8027 267.445 17.798 267.389 17.798C267.342 17.798 267.296 17.798 267.249 17.798C266.53 17.798 265.961 18.0127 265.541 18.442C265.121 18.8713 264.911 19.492 264.911 20.304V24H263.567ZM273.273 24V22.432L273.203 22.138V19.464C273.203 18.8947 273.035 18.456 272.699 18.148C272.372 17.8307 271.877 17.672 271.215 17.672C270.776 17.672 270.347 17.7467 269.927 17.896C269.507 18.036 269.152 18.2273 268.863 18.47L268.303 17.462C268.685 17.154 269.143 16.9207 269.675 16.762C270.216 16.594 270.781 16.51 271.369 16.51C272.386 16.51 273.17 16.7573 273.721 17.252C274.271 17.7467 274.547 18.5027 274.547 19.52V24H273.273ZM270.837 24.084C270.286 24.084 269.801 23.9907 269.381 23.804C268.97 23.6173 268.653 23.3607 268.429 23.034C268.205 22.698 268.093 22.32 268.093 21.9C268.093 21.4987 268.186 21.1347 268.373 20.808C268.569 20.4813 268.881 20.22 269.311 20.024C269.749 19.828 270.337 19.73 271.075 19.73H273.427V20.696H271.131C270.459 20.696 270.006 20.808 269.773 21.032C269.539 21.256 269.423 21.5267 269.423 21.844C269.423 22.208 269.567 22.502 269.857 22.726C270.146 22.9407 270.547 23.048 271.061 23.048C271.565 23.048 272.003 22.936 272.377 22.712C272.759 22.488 273.035 22.1613 273.203 21.732L273.469 22.656C273.291 23.0947 272.979 23.4447 272.531 23.706C272.083 23.958 271.518 24.084 270.837 24.084ZM280.268 24.084C279.512 24.084 278.835 23.9207 278.238 23.594C277.65 23.2673 277.188 22.8193 276.852 22.25C276.516 21.6807 276.348 21.0273 276.348 20.29C276.348 19.5527 276.516 18.8993 276.852 18.33C277.188 17.7607 277.65 17.3173 278.238 17C278.835 16.6733 279.512 16.51 280.268 16.51C280.94 16.51 281.537 16.6453 282.06 16.916C282.592 17.1773 283.002 17.5693 283.292 18.092L282.27 18.75C282.027 18.386 281.728 18.12 281.374 17.952C281.028 17.7747 280.655 17.686 280.254 17.686C279.768 17.686 279.334 17.7933 278.952 18.008C278.569 18.2227 278.266 18.526 278.042 18.918C277.818 19.3007 277.706 19.758 277.706 20.29C277.706 20.822 277.818 21.284 278.042 21.676C278.266 22.068 278.569 22.3713 278.952 22.586C279.334 22.8007 279.768 22.908 280.254 22.908C280.655 22.908 281.028 22.824 281.374 22.656C281.728 22.4787 282.027 22.208 282.27 21.844L283.292 22.488C283.002 23.0013 282.592 23.398 282.06 23.678C281.537 23.9487 280.94 24.084 280.268 24.084ZM286.028 22.208L286.056 20.486L290.326 16.58H291.95L288.674 19.8L287.946 20.416L286.028 22.208ZM284.936 24V13.612H286.28V24H284.936ZM290.606 24L287.694 20.388L288.562 19.31L292.258 24H290.606ZM293.563 24V16.58H294.907V24H293.563ZM294.235 15.152C293.974 15.152 293.754 15.068 293.577 14.9C293.409 14.732 293.325 14.5267 293.325 14.284C293.325 14.032 293.409 13.822 293.577 13.654C293.754 13.486 293.974 13.402 294.235 13.402C294.496 13.402 294.711 13.486 294.879 13.654C295.056 13.8127 295.145 14.0133 295.145 14.256C295.145 14.508 295.061 14.7227 294.893 14.9C294.725 15.068 294.506 15.152 294.235 15.152ZM301.435 16.51C302.042 16.51 302.574 16.6267 303.031 16.86C303.498 17.0933 303.862 17.448 304.123 17.924C304.385 18.4 304.515 19.002 304.515 19.73V24H303.171V19.884C303.171 19.1653 302.994 18.624 302.639 18.26C302.294 17.896 301.804 17.714 301.169 17.714C300.693 17.714 300.278 17.8073 299.923 17.994C299.569 18.1807 299.293 18.456 299.097 18.82C298.911 19.184 298.817 19.6367 298.817 20.178V24H297.473V16.58H298.761V18.582L298.551 18.05C298.794 17.5647 299.167 17.1867 299.671 16.916C300.175 16.6453 300.763 16.51 301.435 16.51ZM310.251 26.8C309.569 26.8 308.907 26.702 308.263 26.506C307.628 26.3193 307.11 26.0487 306.709 25.694L307.353 24.658C307.698 24.9567 308.123 25.19 308.627 25.358C309.131 25.5353 309.658 25.624 310.209 25.624C311.086 25.624 311.73 25.4187 312.141 25.008C312.551 24.5973 312.757 23.972 312.757 23.132V21.564L312.897 20.094L312.827 18.61V16.58H314.101V22.992C314.101 24.2987 313.774 25.26 313.121 25.876C312.467 26.492 311.511 26.8 310.251 26.8ZM310.083 23.692C309.364 23.692 308.72 23.5427 308.151 23.244C307.591 22.936 307.143 22.5113 306.807 21.97C306.48 21.4287 306.317 20.8033 306.317 20.094C306.317 19.3753 306.48 18.75 306.807 18.218C307.143 17.6767 307.591 17.2567 308.151 16.958C308.72 16.6593 309.364 16.51 310.083 16.51C310.717 16.51 311.296 16.6407 311.819 16.902C312.341 17.154 312.757 17.546 313.065 18.078C313.382 18.61 313.541 19.282 313.541 20.094C313.541 20.8967 313.382 21.564 313.065 22.096C312.757 22.628 312.341 23.0293 311.819 23.3C311.296 23.5613 310.717 23.692 310.083 23.692ZM310.237 22.516C310.731 22.516 311.17 22.4133 311.553 22.208C311.935 22.0027 312.234 21.718 312.449 21.354C312.673 20.99 312.785 20.57 312.785 20.094C312.785 19.618 312.673 19.198 312.449 18.834C312.234 18.47 311.935 18.19 311.553 17.994C311.17 17.7887 310.731 17.686 310.237 17.686C309.742 17.686 309.299 17.7887 308.907 17.994C308.524 18.19 308.221 18.47 307.997 18.834C307.782 19.198 307.675 19.618 307.675 20.094C307.675 20.57 307.782 20.99 307.997 21.354C308.221 21.718 308.524 22.0027 308.907 22.208C309.299 22.4133 309.742 22.516 310.237 22.516Z" fill="#EA536B"/>
<path d="M365.332 18.0002L369.457 22.125L378.296 13.2861" stroke="#004DFF" stroke-width="2" stroke-linecap="round" stroke-linejoin="round"/>
<rect x="348" width="186" height="37" rx="18.5" fill="#004DFF" fill-opacity="0.06"/>
<path d="M391.416 24H392.802V15.418H396.162V14.2H388.056V15.418H391.416V24ZM399.796 16.51C398.606 16.51 397.5 16.846 396.73 17.462L397.29 18.47C397.864 17.98 398.76 17.672 399.642 17.672C400.972 17.672 401.63 18.33 401.63 19.464V19.73H399.502C397.29 19.73 396.52 20.71 396.52 21.9C396.52 23.188 397.584 24.084 399.264 24.084C400.426 24.084 401.252 23.692 401.7 23.02V24H402.974V19.52C402.974 17.49 401.826 16.51 399.796 16.51ZM399.488 23.048C398.466 23.048 397.85 22.586 397.85 21.844C397.85 21.214 398.228 20.696 399.558 20.696H401.63V21.732C401.294 22.586 400.496 23.048 399.488 23.048ZM407.59 24.084C409.564 24.084 410.796 23.23 410.796 21.886C410.796 19.002 406.092 20.43 406.092 18.68C406.092 18.092 406.666 17.658 407.842 17.658C408.57 17.658 409.312 17.812 409.984 18.246L410.558 17.182C409.914 16.762 408.822 16.51 407.856 16.51C405.952 16.51 404.762 17.406 404.762 18.736C404.762 21.69 409.452 20.248 409.452 21.914C409.452 22.544 408.934 22.922 407.688 22.922C406.722 22.922 405.714 22.6 405.084 22.152L404.524 23.216C405.14 23.706 406.358 24.084 407.59 24.084ZM418.145 24H419.797L416.367 19.646L419.489 16.58H417.865L413.819 20.276V13.612H412.475V24H413.819V21.97L415.359 20.542L418.145 24ZM435.488 24L435.474 14.2H434.326L430.294 21.088L426.206 14.2H425.058V24H426.402V16.902L429.944 22.81H430.588L434.13 16.86L434.144 24H435.488ZM440.935 16.51C439.745 16.51 438.639 16.846 437.869 17.462L438.429 18.47C439.003 17.98 439.899 17.672 440.781 17.672C442.111 17.672 442.769 18.33 442.769 19.464V19.73H440.641C438.429 19.73 437.659 20.71 437.659 21.9C437.659 23.188 438.723 24.084 440.403 24.084C441.565 24.084 442.391 23.692 442.839 23.02V24H444.113V19.52C444.113 17.49 442.965 16.51 440.935 16.51ZM440.627 23.048C439.605 23.048 438.989 22.586 438.989 21.844C438.989 21.214 439.367 20.696 440.697 20.696H442.769V21.732C442.433 22.586 441.635 23.048 440.627 23.048ZM450.562 16.51C449.386 16.51 448.434 16.944 447.888 17.7V16.58H446.6V24H447.944V20.178C447.944 18.568 448.868 17.714 450.296 17.714C451.57 17.714 452.298 18.428 452.298 19.884V24H453.642V19.73C453.642 17.546 452.368 16.51 450.562 16.51ZM458.831 16.51C457.641 16.51 456.535 16.846 455.765 17.462L456.325 18.47C456.899 17.98 457.795 17.672 458.677 17.672C460.007 17.672 460.665 18.33 460.665 19.464V19.73H458.537C456.325 19.73 455.555 20.71 455.555 21.9C455.555 23.188 456.619 24.084 458.299 24.084C459.461 24.084 460.287 23.692 460.735 23.02V24H462.009V19.52C462.009 17.49 460.861 16.51 458.831 16.51ZM458.523 23.048C457.501 23.048 456.885 22.586 456.885 21.844C456.885 21.214 457.263 20.696 458.593 20.696H460.665V21.732C460.329 22.586 459.531 23.048 458.523 23.048ZM470.362 16.58V17.728C469.732 16.916 468.724 16.51 467.618 16.51C465.476 16.51 463.852 17.952 463.852 20.094C463.852 22.236 465.476 23.692 467.618 23.692C468.682 23.692 469.648 23.314 470.292 22.544V23.132C470.292 24.812 469.494 25.624 467.744 25.624C466.652 25.624 465.574 25.246 464.888 24.658L464.244 25.694C465.056 26.422 466.428 26.8 467.786 26.8C470.306 26.8 471.636 25.61 471.636 22.992V16.58H470.362ZM467.772 22.516C466.274 22.516 465.21 21.522 465.21 20.094C465.21 18.652 466.274 17.686 467.772 17.686C469.256 17.686 470.32 18.652 470.32 20.094C470.32 21.522 469.256 22.516 467.772 22.516ZM480.91 20.332C480.91 18.05 479.384 16.51 477.242 16.51C475.1 16.51 473.518 18.092 473.518 20.29C473.518 22.502 475.114 24.084 477.508 24.084C478.74 24.084 479.762 23.664 480.434 22.88L479.692 22.012C479.146 22.614 478.418 22.908 477.55 22.908C476.08 22.908 475.03 22.04 474.862 20.738H480.882C480.896 20.612 480.91 20.444 480.91 20.332ZM477.242 17.644C478.544 17.644 479.482 18.526 479.622 19.772H474.862C475.002 18.512 475.954 17.644 477.242 17.644ZM492.058 16.51C490.798 16.51 489.762 17.042 489.202 17.882C488.712 16.958 487.76 16.51 486.626 16.51C485.506 16.51 484.596 16.93 484.064 17.686V16.58H482.776V24H484.12V20.178C484.12 18.568 485.002 17.714 486.346 17.714C487.564 17.714 488.264 18.428 488.264 19.884V24H489.608V20.178C489.608 18.568 490.49 17.714 491.834 17.714C493.052 17.714 493.752 18.428 493.752 19.884V24H495.096V19.73C495.096 17.546 493.864 16.51 492.058 16.51ZM504.316 20.332C504.316 18.05 502.79 16.51 500.648 16.51C498.506 16.51 496.924 18.092 496.924 20.29C496.924 22.502 498.52 24.084 500.914 24.084C502.146 24.084 503.168 23.664 503.84 22.88L503.098 22.012C502.552 22.614 501.824 22.908 500.956 22.908C499.486 22.908 498.436 22.04 498.268 20.738H504.288C504.302 20.612 504.316 20.444 504.316 20.332ZM500.648 17.644C501.95 17.644 502.888 18.526 503.028 19.772H498.268C498.408 18.512 499.36 17.644 500.648 17.644ZM510.144 16.51C508.968 16.51 508.016 16.944 507.47 17.7V16.58H506.182V24H507.526V20.178C507.526 18.568 508.45 17.714 509.878 17.714C511.152 17.714 511.88 18.428 511.88 19.884V24H513.224V19.73C513.224 17.546 511.95 16.51 510.144 16.51ZM519.464 22.6C519.184 22.824 518.806 22.95 518.414 22.95C517.672 22.95 517.252 22.502 517.252 21.704V17.686H519.38V16.58H517.252V14.956H515.908V16.58H514.648V17.686H515.908V21.76C515.908 23.258 516.762 24.084 518.26 24.084C518.862 24.084 519.478 23.916 519.884 23.566L519.464 22.6Z" fill="#004DFF"/>
<rect x="552" width="162" height="37" rx="18.5" fill="#FFC248" fill-opacity="0.06"/>
<path d="M570.332 18.0002L574.457 22.125L583.296 13.2861" stroke="#FFAC03" stroke-width="2" stroke-linecap="round" stroke-linejoin="round"/>
<path d="M598.326 24.112C597.579 24.112 596.865 24 596.184 23.776C595.503 23.5427 594.966 23.244 594.574 22.88L595.092 21.788C595.465 22.1147 595.941 22.3853 596.52 22.6C597.099 22.8147 597.701 22.922 598.326 22.922C598.895 22.922 599.357 22.8567 599.712 22.726C600.067 22.5953 600.328 22.418 600.496 22.194C600.664 21.9607 600.748 21.6993 600.748 21.41C600.748 21.074 600.636 20.8033 600.412 20.598C600.197 20.3927 599.913 20.2293 599.558 20.108C599.213 19.9773 598.83 19.8653 598.41 19.772C597.99 19.6787 597.565 19.5713 597.136 19.45C596.716 19.3193 596.329 19.156 595.974 18.96C595.629 18.764 595.349 18.5027 595.134 18.176C594.919 17.84 594.812 17.4107 594.812 16.888C594.812 16.384 594.943 15.922 595.204 15.502C595.475 15.0727 595.885 14.732 596.436 14.48C596.996 14.2187 597.705 14.088 598.564 14.088C599.133 14.088 599.698 14.1627 600.258 14.312C600.818 14.4613 601.303 14.676 601.714 14.956L601.252 16.076C600.832 15.796 600.389 15.5953 599.922 15.474C599.455 15.3433 599.003 15.278 598.564 15.278C598.013 15.278 597.561 15.348 597.206 15.488C596.851 15.628 596.59 15.8147 596.422 16.048C596.263 16.2813 596.184 16.5427 596.184 16.832C596.184 17.1773 596.291 17.4527 596.506 17.658C596.73 17.8633 597.015 18.0267 597.36 18.148C597.715 18.2693 598.102 18.3813 598.522 18.484C598.942 18.5773 599.362 18.6847 599.782 18.806C600.211 18.9273 600.599 19.086 600.944 19.282C601.299 19.478 601.583 19.7393 601.798 20.066C602.013 20.3927 602.12 20.8127 602.12 21.326C602.12 21.8207 601.985 22.2827 601.714 22.712C601.443 23.132 601.023 23.4727 600.454 23.734C599.894 23.986 599.185 24.112 598.326 24.112ZM608.575 24V22.432L608.505 22.138V19.464C608.505 18.8947 608.337 18.456 608.001 18.148C607.675 17.8307 607.18 17.672 606.517 17.672C606.079 17.672 605.649 17.7467 605.229 17.896C604.809 18.036 604.455 18.2273 604.165 18.47L603.605 17.462C603.988 17.154 604.445 16.9207 604.977 16.762C605.519 16.594 606.083 16.51 606.671 16.51C607.689 16.51 608.473 16.7573 609.023 17.252C609.574 17.7467 609.849 18.5027 609.849 19.52V24H608.575ZM606.139 24.084C605.589 24.084 605.103 23.9907 604.683 23.804C604.273 23.6173 603.955 23.3607 603.731 23.034C603.507 22.698 603.395 22.32 603.395 21.9C603.395 21.4987 603.489 21.1347 603.675 20.808C603.871 20.4813 604.184 20.22 604.613 20.024C605.052 19.828 605.64 19.73 606.377 19.73H608.729V20.696H606.433C605.761 20.696 605.309 20.808 605.075 21.032C604.842 21.256 604.725 21.5267 604.725 21.844C604.725 22.208 604.87 22.502 605.159 22.726C605.449 22.9407 605.85 23.048 606.363 23.048C606.867 23.048 607.306 22.936 607.679 22.712C608.062 22.488 608.337 22.1613 608.505 21.732L608.771 22.656C608.594 23.0947 608.281 23.4447 607.833 23.706C607.385 23.958 606.821 24.084 606.139 24.084ZM612.337 24V13.612H613.681V24H612.337ZM619.551 24.084C618.757 24.084 618.057 23.9207 617.451 23.594C616.853 23.2673 616.387 22.8193 616.051 22.25C615.724 21.6807 615.561 21.0273 615.561 20.29C615.561 19.5527 615.719 18.8993 616.037 18.33C616.363 17.7607 616.807 17.3173 617.367 17C617.936 16.6733 618.575 16.51 619.285 16.51C620.003 16.51 620.638 16.6687 621.189 16.986C621.739 17.3033 622.169 17.7513 622.477 18.33C622.794 18.8993 622.953 19.5667 622.953 20.332C622.953 20.388 622.948 20.4533 622.939 20.528C622.939 20.6027 622.934 20.6727 622.925 20.738H616.611V19.772H622.225L621.679 20.108C621.688 19.632 621.59 19.2073 621.385 18.834C621.179 18.4607 620.895 18.1713 620.531 17.966C620.176 17.7513 619.761 17.644 619.285 17.644C618.818 17.644 618.403 17.7513 618.039 17.966C617.675 18.1713 617.39 18.4653 617.185 18.848C616.979 19.2213 616.877 19.6507 616.877 20.136V20.36C616.877 20.8547 616.989 21.298 617.213 21.69C617.446 22.0727 617.768 22.3713 618.179 22.586C618.589 22.8007 619.061 22.908 619.593 22.908C620.031 22.908 620.428 22.8333 620.783 22.684C621.147 22.5347 621.464 22.3107 621.735 22.012L622.477 22.88C622.141 23.272 621.721 23.5707 621.217 23.776C620.722 23.9813 620.167 24.084 619.551 24.084ZM626.947 24.084C626.331 24.084 625.743 24 625.183 23.832C624.632 23.664 624.198 23.4587 623.881 23.216L624.441 22.152C624.758 22.3667 625.15 22.5487 625.617 22.698C626.084 22.8473 626.56 22.922 627.045 22.922C627.67 22.922 628.118 22.8333 628.389 22.656C628.669 22.4787 628.809 22.2313 628.809 21.914C628.809 21.6807 628.725 21.4987 628.557 21.368C628.389 21.2373 628.165 21.1393 627.885 21.074C627.614 21.0087 627.311 20.9527 626.975 20.906C626.639 20.85 626.303 20.7847 625.967 20.71C625.631 20.626 625.323 20.514 625.043 20.374C624.763 20.2247 624.539 20.024 624.371 19.772C624.203 19.5107 624.119 19.1653 624.119 18.736C624.119 18.288 624.245 17.896 624.497 17.56C624.749 17.224 625.104 16.9673 625.561 16.79C626.028 16.6033 626.578 16.51 627.213 16.51C627.698 16.51 628.188 16.5707 628.683 16.692C629.187 16.804 629.598 16.9673 629.915 17.182L629.341 18.246C629.005 18.022 628.655 17.868 628.291 17.784C627.927 17.7 627.563 17.658 627.199 17.658C626.611 17.658 626.172 17.756 625.883 17.952C625.594 18.1387 625.449 18.3813 625.449 18.68C625.449 18.932 625.533 19.128 625.701 19.268C625.878 19.3987 626.102 19.5013 626.373 19.576C626.653 19.6507 626.961 19.716 627.297 19.772C627.633 19.8187 627.969 19.884 628.305 19.968C628.641 20.0427 628.944 20.15 629.215 20.29C629.495 20.43 629.719 20.626 629.887 20.878C630.064 21.13 630.153 21.466 630.153 21.886C630.153 22.334 630.022 22.7213 629.761 23.048C629.5 23.3747 629.131 23.6313 628.655 23.818C628.179 23.9953 627.61 24.084 626.947 24.084ZM634.304 24L638.742 14.2H640.128L644.58 24H643.11L639.148 14.984H639.708L635.746 24H634.304ZM636.194 21.55L636.572 20.43H642.088L642.494 21.55H636.194ZM649.808 16.51C650.415 16.51 650.947 16.6267 651.404 16.86C651.871 17.0933 652.235 17.448 652.496 17.924C652.758 18.4 652.888 19.002 652.888 19.73V24H651.544V19.884C651.544 19.1653 651.367 18.624 651.012 18.26C650.667 17.896 650.177 17.714 649.542 17.714C649.066 17.714 648.651 17.8073 648.296 17.994C647.942 18.1807 647.666 18.456 647.47 18.82C647.284 19.184 647.19 19.6367 647.19 20.178V24H645.846V16.58H647.134V18.582L646.924 18.05C647.167 17.5647 647.54 17.1867 648.044 16.916C648.548 16.6453 649.136 16.51 649.808 16.51ZM659.982 24V22.432L659.912 22.138V19.464C659.912 18.8947 659.744 18.456 659.408 18.148C659.081 17.8307 658.586 17.672 657.924 17.672C657.485 17.672 657.056 17.7467 656.636 17.896C656.216 18.036 655.861 18.2273 655.572 18.47L655.012 17.462C655.394 17.154 655.852 16.9207 656.384 16.762C656.925 16.594 657.49 16.51 658.078 16.51C659.095 16.51 659.879 16.7573 660.43 17.252C660.98 17.7467 661.256 18.5027 661.256 19.52V24H659.982ZM657.546 24.084C656.995 24.084 656.51 23.9907 656.09 23.804C655.679 23.6173 655.362 23.3607 655.138 23.034C654.914 22.698 654.802 22.32 654.802 21.9C654.802 21.4987 654.895 21.1347 655.082 20.808C655.278 20.4813 655.59 20.22 656.02 20.024C656.458 19.828 657.046 19.73 657.784 19.73H660.136V20.696H657.84C657.168 20.696 656.715 20.808 656.482 21.032C656.248 21.256 656.132 21.5267 656.132 21.844C656.132 22.208 656.276 22.502 656.566 22.726C656.855 22.9407 657.256 23.048 657.77 23.048C658.274 23.048 658.712 22.936 659.086 22.712C659.468 22.488 659.744 22.1613 659.912 21.732L660.178 22.656C660 23.0947 659.688 23.4447 659.24 23.706C658.792 23.958 658.227 24.084 657.546 24.084ZM663.743 24V13.612H665.087V24H663.743ZM667.975 26.8C667.62 26.8 667.275 26.7393 666.939 26.618C666.603 26.506 666.314 26.338 666.071 26.114L666.645 25.106C666.832 25.2833 667.037 25.4187 667.261 25.512C667.485 25.6053 667.723 25.652 667.975 25.652C668.302 25.652 668.572 25.568 668.787 25.4C669.002 25.232 669.202 24.9333 669.389 24.504L669.851 23.482L669.991 23.314L672.903 16.58H674.219L670.621 24.742C670.406 25.2647 670.164 25.6753 669.893 25.974C669.632 26.2727 669.342 26.4827 669.025 26.604C668.708 26.7347 668.358 26.8 667.975 26.8ZM669.739 24.238L666.351 16.58H667.751L670.635 23.188L669.739 24.238ZM678.226 24.084C677.48 24.084 676.901 23.8833 676.49 23.482C676.08 23.0807 675.874 22.5067 675.874 21.76V14.956H677.218V21.704C677.218 22.1053 677.316 22.4133 677.512 22.628C677.718 22.8427 678.007 22.95 678.38 22.95C678.8 22.95 679.15 22.8333 679.43 22.6L679.85 23.566C679.645 23.7433 679.398 23.874 679.108 23.958C678.828 24.042 678.534 24.084 678.226 24.084ZM674.614 17.686V16.58H679.346V17.686H674.614ZM681.475 24V16.58H682.819V24H681.475ZM682.147 15.152C681.886 15.152 681.667 15.068 681.489 14.9C681.321 14.732 681.237 14.5267 681.237 14.284C681.237 14.032 681.321 13.822 681.489 13.654C681.667 13.486 681.886 13.402 682.147 13.402C682.409 13.402 682.623 13.486 682.791 13.654C682.969 13.8127 683.057 14.0133 683.057 14.256C683.057 14.508 682.973 14.7227 682.805 14.9C682.637 15.068 682.418 15.152 682.147 15.152ZM688.619 24.084C687.863 24.084 687.187 23.9207 686.589 23.594C686.001 23.2673 685.539 22.8193 685.203 22.25C684.867 21.6807 684.699 21.0273 684.699 20.29C684.699 19.5527 684.867 18.8993 685.203 18.33C685.539 17.7607 686.001 17.3173 686.589 17C687.187 16.6733 687.863 16.51 688.619 16.51C689.291 16.51 689.889 16.6453 690.411 16.916C690.943 17.1773 691.354 17.5693 691.643 18.092L690.621 18.75C690.379 18.386 690.08 18.12 689.725 17.952C689.38 17.7747 689.007 17.686 688.605 17.686C688.12 17.686 687.686 17.7933 687.303 18.008C686.921 18.2227 686.617 18.526 686.393 18.918C686.169 19.3007 686.057 19.758 686.057 20.29C686.057 20.822 686.169 21.284 686.393 21.676C686.617 22.068 686.921 22.3713 687.303 22.586C687.686 22.8007 688.12 22.908 688.605 22.908C689.007 22.908 689.38 22.824 689.725 22.656C690.08 22.4787 690.379 22.208 690.621 21.844L691.643 22.488C691.354 23.0013 690.943 23.398 690.411 23.678C689.889 23.9487 689.291 24.084 688.619 24.084ZM695.511 24.084C694.895 24.084 694.307 24 693.747 23.832C693.197 23.664 692.763 23.4587 692.445 23.216L693.005 22.152C693.323 22.3667 693.715 22.5487 694.181 22.698C694.648 22.8473 695.124 22.922 695.609 22.922C696.235 22.922 696.683 22.8333 696.953 22.656C697.233 22.4787 697.373 22.2313 697.373 21.914C697.373 21.6807 697.289 21.4987 697.121 21.368C696.953 21.2373 696.729 21.1393 696.449 21.074C696.179 21.0087 695.875 20.9527 695.539 20.906C695.203 20.85 694.867 20.7847 694.531 20.71C694.195 20.626 693.887 20.514 693.607 20.374C693.327 20.2247 693.103 20.024 692.935 19.772C692.767 19.5107 692.683 19.1653 692.683 18.736C692.683 18.288 692.809 17.896 693.061 17.56C693.313 17.224 693.668 16.9673 694.125 16.79C694.592 16.6033 695.143 16.51 695.777 16.51C696.263 16.51 696.753 16.5707 697.247 16.692C697.751 16.804 698.162 16.9673 698.479 17.182L697.905 18.246C697.569 18.022 697.219 17.868 696.855 17.784C696.491 17.7 696.127 17.658 695.763 17.658C695.175 17.658 694.737 17.756 694.447 17.952C694.158 18.1387 694.013 18.3813 694.013 18.68C694.013 18.932 694.097 19.128 694.265 19.268C694.443 19.3987 694.667 19.5013 694.937 19.576C695.217 19.6507 695.525 19.716 695.861 19.772C696.197 19.8187 696.533 19.884 696.869 19.968C697.205 20.0427 697.509 20.15 697.779 20.29C698.059 20.43 698.283 20.626 698.451 20.878C698.629 21.13 698.717 21.466 698.717 21.886C698.717 22.334 698.587 22.7213 698.325 23.048C698.064 23.3747 697.695 23.6313 697.219 23.818C696.743 23.9953 696.174 24.084 695.511 24.084Z" fill="#FFAC03"/>
<rect x="732" width="267" height="37" rx="18.5" fill="#FF51EE" fill-opacity="0.1"/>
<path d="M748.332 18.0002L752.457 22.125L761.296 13.2861" stroke="#EA53DB" stroke-width="2" stroke-linecap="round" stroke-linejoin="round"/>
<path d="M771.47 24V14.2H772.618L777.014 21.606H776.398L780.738 14.2H781.886L781.9 24H780.556L780.542 16.314H780.864L777 22.81H776.356L772.464 16.314H772.814V24H771.47ZM787.767 24.084C787.132 24.084 786.572 23.9673 786.087 23.734C785.611 23.5007 785.238 23.146 784.967 22.67C784.706 22.1847 784.575 21.578 784.575 20.85V16.58H785.919V20.696C785.919 21.424 786.092 21.97 786.437 22.334C786.792 22.698 787.286 22.88 787.921 22.88C788.388 22.88 788.794 22.7867 789.139 22.6C789.484 22.404 789.75 22.124 789.937 21.76C790.124 21.3867 790.217 20.9387 790.217 20.416V16.58H791.561V24H790.287V21.998L790.497 22.53C790.254 23.0247 789.89 23.4073 789.405 23.678C788.92 23.9487 788.374 24.084 787.767 24.084ZM794.12 24V13.612H795.464V24H794.12ZM800.769 24.084C800.023 24.084 799.444 23.8833 799.033 23.482C798.623 23.0807 798.417 22.5067 798.417 21.76V14.956H799.761V21.704C799.761 22.1053 799.859 22.4133 800.055 22.628C800.261 22.8427 800.55 22.95 800.923 22.95C801.343 22.95 801.693 22.8333 801.973 22.6L802.393 23.566C802.188 23.7433 801.941 23.874 801.651 23.958C801.371 24.042 801.077 24.084 800.769 24.084ZM797.157 17.686V16.58H801.889V17.686H797.157ZM804.018 24V16.58H805.362V24H804.018ZM804.69 15.152C804.429 15.152 804.209 15.068 804.032 14.9C803.864 14.732 803.78 14.5267 803.78 14.284C803.78 14.032 803.864 13.822 804.032 13.654C804.209 13.486 804.429 13.402 804.69 13.402C804.951 13.402 805.166 13.486 805.334 13.654C805.511 13.8127 805.6 14.0133 805.6 14.256C805.6 14.508 805.516 14.7227 805.348 14.9C805.18 15.068 804.961 15.152 804.69 15.152ZM812.506 24.112C811.76 24.112 811.069 23.9907 810.434 23.748C809.809 23.496 809.263 23.146 808.796 22.698C808.339 22.2407 807.98 21.7087 807.718 21.102C807.457 20.4953 807.326 19.828 807.326 19.1C807.326 18.372 807.457 17.7047 807.718 17.098C807.98 16.4913 808.344 15.964 808.81 15.516C809.277 15.0587 809.823 14.7087 810.448 14.466C811.083 14.214 811.774 14.088 812.52 14.088C813.276 14.088 813.972 14.2187 814.606 14.48C815.25 14.732 815.796 15.11 816.244 15.614L815.334 16.496C814.961 16.104 814.541 15.8147 814.074 15.628C813.608 15.432 813.108 15.334 812.576 15.334C812.026 15.334 811.512 15.4273 811.036 15.614C810.57 15.8007 810.164 16.062 809.818 16.398C809.473 16.734 809.202 17.1353 809.006 17.602C808.82 18.0593 808.726 18.5587 808.726 19.1C808.726 19.6413 808.82 20.1453 809.006 20.612C809.202 21.0693 809.473 21.466 809.818 21.802C810.164 22.138 810.57 22.3993 811.036 22.586C811.512 22.7727 812.026 22.866 812.576 22.866C813.108 22.866 813.608 22.7727 814.074 22.586C814.541 22.39 814.961 22.0913 815.334 21.69L816.244 22.572C815.796 23.076 815.25 23.4587 814.606 23.72C813.972 23.9813 813.272 24.112 812.506 24.112ZM822.007 16.51C822.614 16.51 823.146 16.6267 823.603 16.86C824.07 17.0933 824.434 17.448 824.695 17.924C824.957 18.4 825.087 19.002 825.087 19.73V24H823.743V19.884C823.743 19.1653 823.566 18.624 823.211 18.26C822.866 17.896 822.376 17.714 821.741 17.714C821.265 17.714 820.85 17.8073 820.495 17.994C820.141 18.1807 819.865 18.456 819.669 18.82C819.483 19.184 819.389 19.6367 819.389 20.178V24H818.045V13.612H819.389V18.582L819.123 18.05C819.366 17.5647 819.739 17.1867 820.243 16.916C820.747 16.6453 821.335 16.51 822.007 16.51ZM832.181 24V22.432L832.111 22.138V19.464C832.111 18.8947 831.943 18.456 831.607 18.148C831.28 17.8307 830.785 17.672 830.123 17.672C829.684 17.672 829.255 17.7467 828.835 17.896C828.415 18.036 828.06 18.2273 827.771 18.47L827.211 17.462C827.593 17.154 828.051 16.9207 828.583 16.762C829.124 16.594 829.689 16.51 830.277 16.51C831.294 16.51 832.078 16.7573 832.629 17.252C833.179 17.7467 833.455 18.5027 833.455 19.52V24H832.181ZM829.745 24.084C829.194 24.084 828.709 23.9907 828.289 23.804C827.878 23.6173 827.561 23.3607 827.337 23.034C827.113 22.698 827.001 22.32 827.001 21.9C827.001 21.4987 827.094 21.1347 827.281 20.808C827.477 20.4813 827.789 20.22 828.219 20.024C828.657 19.828 829.245 19.73 829.983 19.73H832.335V20.696H830.039C829.367 20.696 828.914 20.808 828.681 21.032C828.447 21.256 828.331 21.5267 828.331 21.844C828.331 22.208 828.475 22.502 828.765 22.726C829.054 22.9407 829.455 23.048 829.969 23.048C830.473 23.048 830.911 22.936 831.285 22.712C831.667 22.488 831.943 22.1613 832.111 21.732L832.377 22.656C832.199 23.0947 831.887 23.4447 831.439 23.706C830.991 23.958 830.426 24.084 829.745 24.084ZM839.904 16.51C840.511 16.51 841.043 16.6267 841.5 16.86C841.967 17.0933 842.331 17.448 842.592 17.924C842.853 18.4 842.984 19.002 842.984 19.73V24H841.64V19.884C841.64 19.1653 841.463 18.624 841.108 18.26C840.763 17.896 840.273 17.714 839.638 17.714C839.162 17.714 838.747 17.8073 838.392 17.994C838.037 18.1807 837.762 18.456 837.566 18.82C837.379 19.184 837.286 19.6367 837.286 20.178V24H835.942V16.58H837.23V18.582L837.02 18.05C837.263 17.5647 837.636 17.1867 838.14 16.916C838.644 16.6453 839.232 16.51 839.904 16.51ZM849.433 16.51C850.04 16.51 850.572 16.6267 851.029 16.86C851.496 17.0933 851.86 17.448 852.121 17.924C852.383 18.4 852.513 19.002 852.513 19.73V24H851.169V19.884C851.169 19.1653 850.992 18.624 850.637 18.26C850.292 17.896 849.802 17.714 849.167 17.714C848.691 17.714 848.276 17.8073 847.921 17.994C847.567 18.1807 847.291 18.456 847.095 18.82C846.909 19.184 846.815 19.6367 846.815 20.178V24H845.471V16.58H846.759V18.582L846.549 18.05C846.792 17.5647 847.165 17.1867 847.669 16.916C848.173 16.6453 848.761 16.51 849.433 16.51ZM858.305 24.084C857.511 24.084 856.811 23.9207 856.205 23.594C855.607 23.2673 855.141 22.8193 854.805 22.25C854.478 21.6807 854.315 21.0273 854.315 20.29C854.315 19.5527 854.473 18.8993 854.791 18.33C855.117 17.7607 855.561 17.3173 856.121 17C856.69 16.6733 857.329 16.51 858.039 16.51C858.757 16.51 859.392 16.6687 859.943 16.986C860.493 17.3033 860.923 17.7513 861.231 18.33C861.548 18.8993 861.707 19.5667 861.707 20.332C861.707 20.388 861.702 20.4533 861.693 20.528C861.693 20.6027 861.688 20.6727 861.679 20.738H855.365V19.772H860.979L860.433 20.108C860.442 19.632 860.344 19.2073 860.139 18.834C859.933 18.4607 859.649 18.1713 859.285 17.966C858.93 17.7513 858.515 17.644 858.039 17.644C857.572 17.644 857.157 17.7513 856.793 17.966C856.429 18.1713 856.144 18.4653 855.939 18.848C855.733 19.2213 855.631 19.6507 855.631 20.136V20.36C855.631 20.8547 855.743 21.298 855.967 21.69C856.2 22.0727 856.522 22.3713 856.933 22.586C857.343 22.8007 857.815 22.908 858.347 22.908C858.785 22.908 859.182 22.8333 859.537 22.684C859.901 22.5347 860.218 22.3107 860.489 22.012L861.231 22.88C860.895 23.272 860.475 23.5707 859.971 23.776C859.476 23.9813 858.921 24.084 858.305 24.084ZM863.573 24V13.612H864.917V24H863.573ZM875.821 24.112C875.074 24.112 874.383 23.9907 873.749 23.748C873.123 23.496 872.577 23.146 872.111 22.698C871.653 22.2407 871.294 21.7087 871.033 21.102C870.771 20.4953 870.641 19.828 870.641 19.1C870.641 18.372 870.771 17.7047 871.033 17.098C871.294 16.4913 871.658 15.964 872.125 15.516C872.591 15.0587 873.137 14.7087 873.763 14.466C874.397 14.214 875.088 14.088 875.835 14.088C876.591 14.088 877.286 14.2187 877.921 14.48C878.565 14.732 879.111 15.11 879.559 15.614L878.649 16.496C878.275 16.104 877.855 15.8147 877.389 15.628C876.922 15.432 876.423 15.334 875.891 15.334C875.34 15.334 874.827 15.4273 874.351 15.614C873.884 15.8007 873.478 16.062 873.133 16.398C872.787 16.734 872.517 17.1353 872.321 17.602C872.134 18.0593 872.041 18.5587 872.041 19.1C872.041 19.6413 872.134 20.1453 872.321 20.612C872.517 21.0693 872.787 21.466 873.133 21.802C873.478 22.138 873.884 22.3993 874.351 22.586C874.827 22.7727 875.34 22.866 875.891 22.866C876.423 22.866 876.922 22.7727 877.389 22.586C877.855 22.39 878.275 22.0913 878.649 21.69L879.559 22.572C879.111 23.076 878.565 23.4587 877.921 23.72C877.286 23.9813 876.586 24.112 875.821 24.112ZM884.223 24.084C883.477 24.084 882.814 23.9207 882.235 23.594C881.657 23.2673 881.199 22.8193 880.863 22.25C880.527 21.6713 880.359 21.018 880.359 20.29C880.359 19.5527 880.527 18.8993 880.863 18.33C881.199 17.7607 881.657 17.3173 882.235 17C882.814 16.6733 883.477 16.51 884.223 16.51C884.961 16.51 885.619 16.6733 886.197 17C886.785 17.3173 887.243 17.7607 887.569 18.33C887.905 18.89 888.073 19.5433 888.073 20.29C888.073 21.0273 887.905 21.6807 887.569 22.25C887.243 22.8193 886.785 23.2673 886.197 23.594C885.619 23.9207 884.961 24.084 884.223 24.084ZM884.223 22.908C884.699 22.908 885.124 22.8007 885.497 22.586C885.88 22.3713 886.179 22.068 886.393 21.676C886.608 21.2747 886.715 20.8127 886.715 20.29C886.715 19.758 886.608 19.3007 886.393 18.918C886.179 18.526 885.88 18.2227 885.497 18.008C885.124 17.7933 884.699 17.686 884.223 17.686C883.747 17.686 883.323 17.7933 882.949 18.008C882.576 18.2227 882.277 18.526 882.053 18.918C881.829 19.3007 881.717 19.758 881.717 20.29C881.717 20.8127 881.829 21.2747 882.053 21.676C882.277 22.068 882.576 22.3713 882.949 22.586C883.323 22.8007 883.747 22.908 884.223 22.908ZM899.214 16.51C899.812 16.51 900.339 16.6267 900.796 16.86C901.254 17.0933 901.608 17.448 901.86 17.924C902.122 18.4 902.252 19.002 902.252 19.73V24H900.908V19.884C900.908 19.1653 900.74 18.624 900.404 18.26C900.068 17.896 899.597 17.714 898.99 17.714C898.542 17.714 898.15 17.8073 897.814 17.994C897.478 18.1807 897.217 18.456 897.03 18.82C896.853 19.184 896.764 19.6367 896.764 20.178V24H895.42V19.884C895.42 19.1653 895.252 18.624 894.916 18.26C894.59 17.896 894.118 17.714 893.502 17.714C893.064 17.714 892.676 17.8073 892.34 17.994C892.004 18.1807 891.743 18.456 891.556 18.82C891.37 19.184 891.276 19.6367 891.276 20.178V24H889.932V16.58H891.22V18.554L891.01 18.05C891.244 17.5647 891.603 17.1867 892.088 16.916C892.574 16.6453 893.138 16.51 893.782 16.51C894.492 16.51 895.103 16.6873 895.616 17.042C896.13 17.3873 896.466 17.9147 896.624 18.624L896.078 18.4C896.302 17.8307 896.694 17.3733 897.254 17.028C897.814 16.6827 898.468 16.51 899.214 16.51ZM914.007 16.51C914.605 16.51 915.132 16.6267 915.589 16.86C916.047 17.0933 916.401 17.448 916.653 17.924C916.915 18.4 917.045 19.002 917.045 19.73V24H915.701V19.884C915.701 19.1653 915.533 18.624 915.197 18.26C914.861 17.896 914.39 17.714 913.783 17.714C913.335 17.714 912.943 17.8073 912.607 17.994C912.271 18.1807 912.01 18.456 911.823 18.82C911.646 19.184 911.557 19.6367 911.557 20.178V24H910.213V19.884C910.213 19.1653 910.045 18.624 909.709 18.26C909.383 17.896 908.911 17.714 908.295 17.714C907.857 17.714 907.469 17.8073 907.133 17.994C906.797 18.1807 906.536 18.456 906.349 18.82C906.163 19.184 906.069 19.6367 906.069 20.178V24H904.725V16.58H906.013V18.554L905.803 18.05C906.037 17.5647 906.396 17.1867 906.881 16.916C907.367 16.6453 907.931 16.51 908.575 16.51C909.285 16.51 909.896 16.6873 910.409 17.042C910.923 17.3873 911.259 17.9147 911.417 18.624L910.871 18.4C911.095 17.8307 911.487 17.3733 912.047 17.028C912.607 16.6827 913.261 16.51 914.007 16.51ZM922.64 24.084C922.005 24.084 921.445 23.9673 920.96 23.734C920.484 23.5007 920.111 23.146 919.84 22.67C919.579 22.1847 919.448 21.578 919.448 20.85V16.58H920.792V20.696C920.792 21.424 920.965 21.97 921.31 22.334C921.665 22.698 922.159 22.88 922.794 22.88C923.261 22.88 923.667 22.7867 924.012 22.6C924.357 22.404 924.623 22.124 924.81 21.76C924.997 21.3867 925.09 20.9387 925.09 20.416V16.58H926.434V24H925.16V21.998L925.37 22.53C925.127 23.0247 924.763 23.4073 924.278 23.678C923.793 23.9487 923.247 24.084 922.64 24.084ZM932.955 16.51C933.561 16.51 934.093 16.6267 934.551 16.86C935.017 17.0933 935.381 17.448 935.643 17.924C935.904 18.4 936.035 19.002 936.035 19.73V24H934.691V19.884C934.691 19.1653 934.513 18.624 934.159 18.26C933.813 17.896 933.323 17.714 932.689 17.714C932.213 17.714 931.797 17.8073 931.443 17.994C931.088 18.1807 930.813 18.456 930.617 18.82C930.43 19.184 930.337 19.6367 930.337 20.178V24H928.993V16.58H930.281V18.582L930.071 18.05C930.313 17.5647 930.687 17.1867 931.191 16.916C931.695 16.6453 932.283 16.51 932.955 16.51ZM938.522 24V16.58H939.866V24H938.522ZM939.194 15.152C938.933 15.152 938.713 15.068 938.536 14.9C938.368 14.732 938.284 14.5267 938.284 14.284C938.284 14.032 938.368 13.822 938.536 13.654C938.713 13.486 938.933 13.402 939.194 13.402C939.455 13.402 939.67 13.486 939.838 13.654C940.015 13.8127 940.104 14.0133 940.104 14.256C940.104 14.508 940.02 14.7227 939.852 14.9C939.684 15.068 939.465 15.152 939.194 15.152ZM945.666 24.084C944.91 24.084 944.234 23.9207 943.636 23.594C943.048 23.2673 942.586 22.8193 942.25 22.25C941.914 21.6807 941.746 21.0273 941.746 20.29C941.746 19.5527 941.914 18.8993 942.25 18.33C942.586 17.7607 943.048 17.3173 943.636 17C944.234 16.6733 944.91 16.51 945.666 16.51C946.338 16.51 946.936 16.6453 947.458 16.916C947.99 17.1773 948.401 17.5693 948.69 18.092L947.668 18.75C947.426 18.386 947.127 18.12 946.772 17.952C946.427 17.7747 946.054 17.686 945.652 17.686C945.167 17.686 944.733 17.7933 944.35 18.008C943.968 18.2227 943.664 18.526 943.44 18.918C943.216 19.3007 943.104 19.758 943.104 20.29C943.104 20.822 943.216 21.284 943.44 21.676C943.664 22.068 943.968 22.3713 944.35 22.586C944.733 22.8007 945.167 22.908 945.652 22.908C946.054 22.908 946.427 22.824 946.772 22.656C947.127 22.4787 947.426 22.208 947.668 21.844L948.69 22.488C948.401 23.0013 947.99 23.398 947.458 23.678C946.936 23.9487 946.338 24.084 945.666 24.084ZM955.036 24V22.432L954.966 22.138V19.464C954.966 18.8947 954.798 18.456 954.462 18.148C954.136 17.8307 953.641 17.672 952.978 17.672C952.54 17.672 952.11 17.7467 951.69 17.896C951.27 18.036 950.916 18.2273 950.626 18.47L950.066 17.462C950.449 17.154 950.906 16.9207 951.438 16.762C951.98 16.594 952.544 16.51 953.132 16.51C954.15 16.51 954.934 16.7573 955.484 17.252C956.035 17.7467 956.31 18.5027 956.31 19.52V24H955.036ZM952.6 24.084C952.05 24.084 951.564 23.9907 951.144 23.804C950.734 23.6173 950.416 23.3607 950.192 23.034C949.968 22.698 949.856 22.32 949.856 21.9C949.856 21.4987 949.95 21.1347 950.136 20.808C950.332 20.4813 950.645 20.22 951.074 20.024C951.513 19.828 952.101 19.73 952.838 19.73H955.19V20.696H952.894C952.222 20.696 951.77 20.808 951.536 21.032C951.303 21.256 951.186 21.5267 951.186 21.844C951.186 22.208 951.331 22.502 951.62 22.726C951.91 22.9407 952.311 23.048 952.824 23.048C953.328 23.048 953.767 22.936 954.14 22.712C954.523 22.488 954.798 22.1613 954.966 21.732L955.232 22.656C955.055 23.0947 954.742 23.4447 954.294 23.706C953.846 23.958 953.282 24.084 952.6 24.084ZM961.345 24.084C960.599 24.084 960.02 23.8833 959.609 23.482C959.199 23.0807 958.993 22.5067 958.993 21.76V14.956H960.337V21.704C960.337 22.1053 960.435 22.4133 960.631 22.628C960.837 22.8427 961.126 22.95 961.499 22.95C961.919 22.95 962.269 22.8333 962.549 22.6L962.969 23.566C962.764 23.7433 962.517 23.874 962.227 23.958C961.947 24.042 961.653 24.084 961.345 24.084ZM957.733 17.686V16.58H962.465V17.686H957.733ZM964.594 24V16.58H965.938V24H964.594ZM965.266 15.152C965.005 15.152 964.786 15.068 964.608 14.9C964.44 14.732 964.356 14.5267 964.356 14.284C964.356 14.032 964.44 13.822 964.608 13.654C964.786 13.486 965.005 13.402 965.266 13.402C965.528 13.402 965.742 13.486 965.91 13.654C966.088 13.8127 966.176 14.0133 966.176 14.256C966.176 14.508 966.092 14.7227 965.924 14.9C965.756 15.068 965.537 15.152 965.266 15.152ZM971.682 24.084C970.936 24.084 970.273 23.9207 969.694 23.594C969.116 23.2673 968.658 22.8193 968.322 22.25C967.986 21.6713 967.818 21.018 967.818 20.29C967.818 19.5527 967.986 18.8993 968.322 18.33C968.658 17.7607 969.116 17.3173 969.694 17C970.273 16.6733 970.936 16.51 971.682 16.51C972.42 16.51 973.078 16.6733 973.656 17C974.244 17.3173 974.702 17.7607 975.028 18.33C975.364 18.89 975.532 19.5433 975.532 20.29C975.532 21.0273 975.364 21.6807 975.028 22.25C974.702 22.8193 974.244 23.2673 973.656 23.594C973.078 23.9207 972.42 24.084 971.682 24.084ZM971.682 22.908C972.158 22.908 972.583 22.8007 972.956 22.586C973.339 22.3713 973.638 22.068 973.852 21.676C974.067 21.2747 974.174 20.8127 974.174 20.29C974.174 19.758 974.067 19.3007 973.852 18.918C973.638 18.526 973.339 18.2227 972.956 18.008C972.583 17.7933 972.158 17.686 971.682 17.686C971.206 17.686 970.782 17.7933 970.408 18.008C970.035 18.2227 969.736 18.526 969.512 18.918C969.288 19.3007 969.176 19.758 969.176 20.29C969.176 20.8127 969.288 21.2747 969.512 21.676C969.736 22.068 970.035 22.3713 970.408 22.586C970.782 22.8007 971.206 22.908 971.682 22.908ZM981.353 16.51C981.96 16.51 982.492 16.6267 982.949 16.86C983.416 17.0933 983.78 17.448 984.041 17.924C984.303 18.4 984.433 19.002 984.433 19.73V24H983.089V19.884C983.089 19.1653 982.912 18.624 982.557 18.26C982.212 17.896 981.722 17.714 981.087 17.714C980.611 17.714 980.196 17.8073 979.841 17.994C979.487 18.1807 979.211 18.456 979.015 18.82C978.829 19.184 978.735 19.6367 978.735 20.178V24H977.391V16.58H978.679V18.582L978.469 18.05C978.712 17.5647 979.085 17.1867 979.589 16.916C980.093 16.6453 980.681 16.51 981.353 16.51Z" fill="#EA53DB"/>
<path d="M1206.33 18.0002L1210.46 22.125L1219.3 13.2861" stroke="#038C8C" stroke-width="2" stroke-linecap="round" stroke-linejoin="round"/>
<rect x="1183" width="112" height="37" rx="18.5" fill="#038C8C" fill-opacity="0.06"/>
<path d="M1235.89 24.112C1235.15 24.112 1234.45 23.986 1233.81 23.734C1233.17 23.482 1232.62 23.132 1232.16 22.684C1231.69 22.2267 1231.33 21.6947 1231.06 21.088C1230.8 20.4813 1230.67 19.8187 1230.67 19.1C1230.67 18.3813 1230.8 17.7187 1231.06 17.112C1231.33 16.5053 1231.69 15.978 1232.16 15.53C1232.62 15.0727 1233.17 14.718 1233.81 14.466C1234.44 14.214 1235.14 14.088 1235.89 14.088C1236.64 14.088 1237.33 14.214 1237.95 14.466C1238.59 14.7087 1239.14 15.0587 1239.6 15.516C1240.08 15.964 1240.44 16.4913 1240.7 17.098C1240.96 17.7047 1241.09 18.372 1241.09 19.1C1241.09 19.828 1240.96 20.4953 1240.7 21.102C1240.44 21.7087 1240.08 22.2407 1239.6 22.698C1239.14 23.146 1238.59 23.496 1237.95 23.748C1237.33 23.9907 1236.64 24.112 1235.89 24.112ZM1235.89 22.866C1236.44 22.866 1236.93 22.7727 1237.39 22.586C1237.86 22.3993 1238.26 22.138 1238.6 21.802C1238.94 21.4567 1239.21 21.0553 1239.39 20.598C1239.59 20.1407 1239.69 19.6413 1239.69 19.1C1239.69 18.5587 1239.59 18.0593 1239.39 17.602C1239.21 17.1447 1238.94 16.748 1238.6 16.412C1238.26 16.0667 1237.86 15.8007 1237.39 15.614C1236.93 15.4273 1236.44 15.334 1235.89 15.334C1235.34 15.334 1234.83 15.4273 1234.37 15.614C1233.91 15.8007 1233.51 16.0667 1233.16 16.412C1232.82 16.748 1232.55 17.1447 1232.35 17.602C1232.17 18.0593 1232.07 18.5587 1232.07 19.1C1232.07 19.6413 1232.17 20.1407 1232.35 20.598C1232.55 21.0553 1232.82 21.4567 1233.16 21.802C1233.51 22.138 1233.91 22.3993 1234.37 22.586C1234.83 22.7727 1235.34 22.866 1235.89 22.866ZM1245.65 24.084C1244.9 24.084 1244.32 23.8833 1243.91 23.482C1243.5 23.0807 1243.3 22.5067 1243.3 21.76V14.956H1244.64V21.704C1244.64 22.1053 1244.74 22.4133 1244.93 22.628C1245.14 22.8427 1245.43 22.95 1245.8 22.95C1246.22 22.95 1246.57 22.8333 1246.85 22.6L1247.27 23.566C1247.07 23.7433 1246.82 23.874 1246.53 23.958C1246.25 24.042 1245.96 24.084 1245.65 24.084ZM1242.04 17.686V16.58H1246.77V17.686H1242.04ZM1252.86 16.51C1253.47 16.51 1254 16.6267 1254.46 16.86C1254.92 17.0933 1255.29 17.448 1255.55 17.924C1255.81 18.4 1255.94 19.002 1255.94 19.73V24H1254.6V19.884C1254.6 19.1653 1254.42 18.624 1254.06 18.26C1253.72 17.896 1253.23 17.714 1252.59 17.714C1252.12 17.714 1251.7 17.8073 1251.35 17.994C1250.99 18.1807 1250.72 18.456 1250.52 18.82C1250.33 19.184 1250.24 19.6367 1250.24 20.178V24H1248.9V13.612H1250.24V18.582L1249.98 18.05C1250.22 17.5647 1250.59 17.1867 1251.1 16.916C1251.6 16.6453 1252.19 16.51 1252.86 16.51ZM1261.73 24.084C1260.94 24.084 1260.24 23.9207 1259.63 23.594C1259.03 23.2673 1258.57 22.8193 1258.23 22.25C1257.9 21.6807 1257.74 21.0273 1257.74 20.29C1257.74 19.5527 1257.9 18.8993 1258.22 18.33C1258.54 17.7607 1258.99 17.3173 1259.55 17C1260.12 16.6733 1260.76 16.51 1261.46 16.51C1262.18 16.51 1262.82 16.6687 1263.37 16.986C1263.92 17.3033 1264.35 17.7513 1264.66 18.33C1264.97 18.8993 1265.13 19.5667 1265.13 20.332C1265.13 20.388 1265.13 20.4533 1265.12 20.528C1265.12 20.6027 1265.11 20.6727 1265.1 20.738H1258.79V19.772H1264.4L1263.86 20.108C1263.87 19.632 1263.77 19.2073 1263.56 18.834C1263.36 18.4607 1263.07 18.1713 1262.71 17.966C1262.36 17.7513 1261.94 17.644 1261.46 17.644C1261 17.644 1260.58 17.7513 1260.22 17.966C1259.85 18.1713 1259.57 18.4653 1259.36 18.848C1259.16 19.2213 1259.06 19.6507 1259.06 20.136V20.36C1259.06 20.8547 1259.17 21.298 1259.39 21.69C1259.63 22.0727 1259.95 22.3713 1260.36 22.586C1260.77 22.8007 1261.24 22.908 1261.77 22.908C1262.21 22.908 1262.61 22.8333 1262.96 22.684C1263.33 22.5347 1263.64 22.3107 1263.91 22.012L1264.66 22.88C1264.32 23.272 1263.9 23.5707 1263.4 23.776C1262.9 23.9813 1262.35 24.084 1261.73 24.084ZM1267 24V16.58H1268.29V18.596L1268.16 18.092C1268.37 17.5787 1268.71 17.1867 1269.2 16.916C1269.68 16.6453 1270.28 16.51 1270.99 16.51V17.812C1270.93 17.8027 1270.88 17.798 1270.82 17.798C1270.77 17.798 1270.73 17.798 1270.68 17.798C1269.96 17.798 1269.39 18.0127 1268.97 18.442C1268.55 18.8713 1268.34 19.492 1268.34 20.304V24H1267Z" fill="#038C8C"/>
<rect x="1013" width="152" height="37" rx="18.5" fill="#2AB9EF" fill-opacity="0.06"/>
<path d="M1033.33 18.0002L1037.46 22.125L1046.3 13.2861" stroke="#44B7E8" stroke-width="2" stroke-linecap="round" stroke-linejoin="round"/>
<path d="M1054.47 24V14.2H1058.6C1059.65 14.2 1060.56 14.4053 1061.36 14.816C1062.16 15.2267 1062.78 15.8007 1063.22 16.538C1063.67 17.2753 1063.89 18.1293 1063.89 19.1C1063.89 20.0707 1063.67 20.9247 1063.22 21.662C1062.78 22.3993 1062.16 22.9733 1061.36 23.384C1060.56 23.7947 1059.65 24 1058.6 24H1054.47ZM1055.87 22.782H1058.52C1059.33 22.782 1060.03 22.628 1060.62 22.32C1061.21 22.012 1061.68 21.5827 1062 21.032C1062.33 20.472 1062.49 19.828 1062.49 19.1C1062.49 18.3627 1062.33 17.7187 1062 17.168C1061.68 16.6173 1061.21 16.188 1060.62 15.88C1060.03 15.572 1059.33 15.418 1058.52 15.418H1055.87V22.782ZM1069.14 24.084C1068.35 24.084 1067.65 23.9207 1067.04 23.594C1066.45 23.2673 1065.98 22.8193 1065.64 22.25C1065.32 21.6807 1065.15 21.0273 1065.15 20.29C1065.15 19.5527 1065.31 18.8993 1065.63 18.33C1065.96 17.7607 1066.4 17.3173 1066.96 17C1067.53 16.6733 1068.17 16.51 1068.88 16.51C1069.6 16.51 1070.23 16.6687 1070.78 16.986C1071.33 17.3033 1071.76 17.7513 1072.07 18.33C1072.39 18.8993 1072.55 19.5667 1072.55 20.332C1072.55 20.388 1072.54 20.4533 1072.53 20.528C1072.53 20.6027 1072.53 20.6727 1072.52 20.738H1066.2V19.772H1071.82L1071.27 20.108C1071.28 19.632 1071.18 19.2073 1070.98 18.834C1070.77 18.4607 1070.49 18.1713 1070.12 17.966C1069.77 17.7513 1069.35 17.644 1068.88 17.644C1068.41 17.644 1068 17.7513 1067.63 17.966C1067.27 18.1713 1066.98 18.4653 1066.78 18.848C1066.57 19.2213 1066.47 19.6507 1066.47 20.136V20.36C1066.47 20.8547 1066.58 21.298 1066.81 21.69C1067.04 22.0727 1067.36 22.3713 1067.77 22.586C1068.18 22.8007 1068.65 22.908 1069.19 22.908C1069.63 22.908 1070.02 22.8333 1070.38 22.684C1070.74 22.5347 1071.06 22.3107 1071.33 22.012L1072.07 22.88C1071.73 23.272 1071.31 23.5707 1070.81 23.776C1070.32 23.9813 1069.76 24.084 1069.14 24.084ZM1076.96 24.084C1076.21 24.084 1075.64 23.8833 1075.22 23.482C1074.81 23.0807 1074.61 22.5067 1074.61 21.76V14.956H1075.95V21.704C1075.95 22.1053 1076.05 22.4133 1076.25 22.628C1076.45 22.8427 1076.74 22.95 1077.11 22.95C1077.53 22.95 1077.88 22.8333 1078.16 22.6L1078.58 23.566C1078.38 23.7433 1078.13 23.874 1077.84 23.958C1077.56 24.042 1077.27 24.084 1076.96 24.084ZM1073.35 17.686V16.58H1078.08V17.686H1073.35ZM1084.82 24V22.432L1084.75 22.138V19.464C1084.75 18.8947 1084.58 18.456 1084.24 18.148C1083.91 17.8307 1083.42 17.672 1082.76 17.672C1082.32 17.672 1081.89 17.7467 1081.47 17.896C1081.05 18.036 1080.69 18.2273 1080.41 18.47L1079.85 17.462C1080.23 17.154 1080.69 16.9207 1081.22 16.762C1081.76 16.594 1082.32 16.51 1082.91 16.51C1083.93 16.51 1084.71 16.7573 1085.26 17.252C1085.81 17.7467 1086.09 18.5027 1086.09 19.52V24H1084.82ZM1082.38 24.084C1081.83 24.084 1081.34 23.9907 1080.92 23.804C1080.51 23.6173 1080.2 23.3607 1079.97 23.034C1079.75 22.698 1079.64 22.32 1079.64 21.9C1079.64 21.4987 1079.73 21.1347 1079.92 20.808C1080.11 20.4813 1080.42 20.22 1080.85 20.024C1081.29 19.828 1081.88 19.73 1082.62 19.73H1084.97V20.696H1082.67C1082 20.696 1081.55 20.808 1081.32 21.032C1081.08 21.256 1080.97 21.5267 1080.97 21.844C1080.97 22.208 1081.11 22.502 1081.4 22.726C1081.69 22.9407 1082.09 23.048 1082.6 23.048C1083.11 23.048 1083.55 22.936 1083.92 22.712C1084.3 22.488 1084.58 22.1613 1084.75 21.732L1085.01 22.656C1084.83 23.0947 1084.52 23.4447 1084.07 23.706C1083.63 23.958 1083.06 24.084 1082.38 24.084ZM1088.58 24V16.58H1089.92V24H1088.58ZM1089.25 15.152C1088.99 15.152 1088.77 15.068 1088.59 14.9C1088.42 14.732 1088.34 14.5267 1088.34 14.284C1088.34 14.032 1088.42 13.822 1088.59 13.654C1088.77 13.486 1088.99 13.402 1089.25 13.402C1089.51 13.402 1089.72 13.486 1089.89 13.654C1090.07 13.8127 1090.16 14.0133 1090.16 14.256C1090.16 14.508 1090.07 14.7227 1089.91 14.9C1089.74 15.068 1089.52 15.152 1089.25 15.152ZM1092.49 24V13.612H1093.83V24H1092.49ZM1100.35 24V14.2H1104.17C1105.03 14.2 1105.77 14.3353 1106.37 14.606C1106.98 14.8767 1107.45 15.2687 1107.77 15.782C1108.1 16.2953 1108.26 16.9067 1108.26 17.616C1108.26 18.3253 1108.1 18.9367 1107.77 19.45C1107.45 19.954 1106.98 20.3413 1106.37 20.612C1105.77 20.8827 1105.03 21.018 1104.17 21.018H1101.12L1101.75 20.374V24H1100.35ZM1106.9 24L1104.41 20.444H1105.91L1108.43 24H1106.9ZM1101.75 20.514L1101.12 19.828H1104.13C1105.03 19.828 1105.71 19.6367 1106.16 19.254C1106.63 18.862 1106.86 18.316 1106.86 17.616C1106.86 16.916 1106.63 16.3747 1106.16 15.992C1105.71 15.6093 1105.03 15.418 1104.13 15.418H1101.12L1101.75 14.718V20.514ZM1113.63 24.084C1112.84 24.084 1112.14 23.9207 1111.53 23.594C1110.94 23.2673 1110.47 22.8193 1110.13 22.25C1109.81 21.6807 1109.64 21.0273 1109.64 20.29C1109.64 19.5527 1109.8 18.8993 1110.12 18.33C1110.45 17.7607 1110.89 17.3173 1111.45 17C1112.02 16.6733 1112.66 16.51 1113.37 16.51C1114.09 16.51 1114.72 16.6687 1115.27 16.986C1115.82 17.3033 1116.25 17.7513 1116.56 18.33C1116.88 18.8993 1117.03 19.5667 1117.03 20.332C1117.03 20.388 1117.03 20.4533 1117.02 20.528C1117.02 20.6027 1117.02 20.6727 1117.01 20.738H1110.69V19.772H1116.31L1115.76 20.108C1115.77 19.632 1115.67 19.2073 1115.47 18.834C1115.26 18.4607 1114.98 18.1713 1114.61 17.966C1114.26 17.7513 1113.84 17.644 1113.37 17.644C1112.9 17.644 1112.48 17.7513 1112.12 17.966C1111.76 18.1713 1111.47 18.4653 1111.27 18.848C1111.06 19.2213 1110.96 19.6507 1110.96 20.136V20.36C1110.96 20.8547 1111.07 21.298 1111.29 21.69C1111.53 22.0727 1111.85 22.3713 1112.26 22.586C1112.67 22.8007 1113.14 22.908 1113.67 22.908C1114.11 22.908 1114.51 22.8333 1114.86 22.684C1115.23 22.5347 1115.55 22.3107 1115.82 22.012L1116.56 22.88C1116.22 23.272 1115.8 23.5707 1115.3 23.776C1114.8 23.9813 1114.25 24.084 1113.63 24.084ZM1122.83 24.084C1122.22 24.084 1121.65 23.944 1121.14 23.664C1120.64 23.3747 1120.23 22.95 1119.92 22.39C1119.62 21.83 1119.47 21.13 1119.47 20.29C1119.47 19.45 1119.62 18.75 1119.91 18.19C1120.21 17.63 1120.61 17.21 1121.11 16.93C1121.63 16.65 1122.2 16.51 1122.83 16.51C1123.56 16.51 1124.21 16.6687 1124.77 16.986C1125.33 17.3033 1125.77 17.7467 1126.1 18.316C1126.42 18.876 1126.59 19.534 1126.59 20.29C1126.59 21.046 1126.42 21.7087 1126.1 22.278C1125.77 22.8473 1125.33 23.2907 1124.77 23.608C1124.21 23.9253 1123.56 24.084 1122.83 24.084ZM1118.9 26.716V16.58H1120.19V18.582L1120.1 20.304L1120.24 22.026V26.716H1118.9ZM1122.72 22.908C1123.2 22.908 1123.62 22.8007 1124 22.586C1124.38 22.3713 1124.68 22.068 1124.89 21.676C1125.12 21.2747 1125.23 20.8127 1125.23 20.29C1125.23 19.758 1125.12 19.3007 1124.89 18.918C1124.68 18.526 1124.38 18.2227 1124 18.008C1123.62 17.7933 1123.2 17.686 1122.72 17.686C1122.26 17.686 1121.83 17.7933 1121.45 18.008C1121.08 18.2227 1120.78 18.526 1120.55 18.918C1120.34 19.3007 1120.23 19.758 1120.23 20.29C1120.23 20.8127 1120.34 21.2747 1120.55 21.676C1120.78 22.068 1121.08 22.3713 1121.45 22.586C1121.83 22.8007 1122.26 22.908 1122.72 22.908ZM1131.62 24.084C1130.88 24.084 1130.21 23.9207 1129.63 23.594C1129.06 23.2673 1128.6 22.8193 1128.26 22.25C1127.93 21.6713 1127.76 21.018 1127.76 20.29C1127.76 19.5527 1127.93 18.8993 1128.26 18.33C1128.6 17.7607 1129.06 17.3173 1129.63 17C1130.21 16.6733 1130.88 16.51 1131.62 16.51C1132.36 16.51 1133.02 16.6733 1133.6 17C1134.18 17.3173 1134.64 17.7607 1134.97 18.33C1135.3 18.89 1135.47 19.5433 1135.47 20.29C1135.47 21.0273 1135.3 21.6807 1134.97 22.25C1134.64 22.8193 1134.18 23.2673 1133.6 23.594C1133.02 23.9207 1132.36 24.084 1131.62 24.084ZM1131.62 22.908C1132.1 22.908 1132.52 22.8007 1132.9 22.586C1133.28 22.3713 1133.58 22.068 1133.79 21.676C1134.01 21.2747 1134.11 20.8127 1134.11 20.29C1134.11 19.758 1134.01 19.3007 1133.79 18.918C1133.58 18.526 1133.28 18.2227 1132.9 18.008C1132.52 17.7933 1132.1 17.686 1131.62 17.686C1131.15 17.686 1130.72 17.7933 1130.35 18.008C1129.97 18.2227 1129.68 18.526 1129.45 18.918C1129.23 19.3007 1129.12 19.758 1129.12 20.29C1129.12 20.8127 1129.23 21.2747 1129.45 21.676C1129.68 22.068 1129.97 22.3713 1130.35 22.586C1130.72 22.8007 1131.15 22.908 1131.62 22.908ZM1137.33 24V16.58H1138.62V18.596L1138.49 18.092C1138.7 17.5787 1139.04 17.1867 1139.53 16.916C1140.01 16.6453 1140.61 16.51 1141.32 16.51V17.812C1141.26 17.8027 1141.21 17.798 1141.15 17.798C1141.11 17.798 1141.06 17.798 1141.01 17.798C1140.29 17.798 1139.72 18.0127 1139.3 18.442C1138.88 18.8713 1138.67 19.492 1138.67 20.304V24H1137.33ZM1145.83 24.084C1145.08 24.084 1144.5 23.8833 1144.09 23.482C1143.68 23.0807 1143.47 22.5067 1143.47 21.76V14.956H1144.82V21.704C1144.82 22.1053 1144.92 22.4133 1145.11 22.628C1145.32 22.8427 1145.61 22.95 1145.98 22.95C1146.4 22.95 1146.75 22.8333 1147.03 22.6L1147.45 23.566C1147.24 23.7433 1147 23.874 1146.71 23.958C1146.43 24.042 1146.13 24.084 1145.83 24.084ZM1142.21 17.686V16.58H1146.95V17.686H1142.21Z" fill="#00B3FF"/>
</svg>
