<svg width="156" height="37" viewBox="0 0 156 37" fill="none" xmlns="http://www.w3.org/2000/svg">
<rect width="156" height="37" rx="18.5" fill="#EA536B" fill-opacity="0.06"/>
<path d="M17.332 18.0002L21.4568 22.125L30.2957 13.2861" stroke="#EA536B" stroke-width="2" stroke-linecap="round" stroke-linejoin="round"/>
<path d="M43.47 24H50.176V22.782H44.87V14.2H43.47V24ZM58.1968 20.332C58.1968 18.05 56.6708 16.51 54.5288 16.51C52.3868 16.51 50.8048 18.092 50.8048 20.29C50.8048 22.502 52.4008 24.084 54.7948 24.084C56.0268 24.084 57.0488 23.664 57.7208 22.88L56.9788 22.012C56.4328 22.614 55.7048 22.908 54.8368 22.908C53.3668 22.908 52.3168 22.04 52.1488 20.738H58.1688C58.1828 20.612 58.1968 20.444 58.1968 20.332ZM54.5288 17.644C55.8308 17.644 56.7688 18.526 56.9088 19.772H52.1488C52.2888 18.512 53.2408 17.644 54.5288 17.644ZM62.56 16.51C61.37 16.51 60.264 16.846 59.494 17.462L60.054 18.47C60.628 17.98 61.524 17.672 62.406 17.672C63.736 17.672 64.394 18.33 64.394 19.464V19.73H62.266C60.054 19.73 59.284 20.71 59.284 21.9C59.284 23.188 60.348 24.084 62.028 24.084C63.19 24.084 64.016 23.692 64.464 23.02V24H65.738V19.52C65.738 17.49 64.59 16.51 62.56 16.51ZM62.252 23.048C61.23 23.048 60.614 22.586 60.614 21.844C60.614 21.214 60.992 20.696 62.322 20.696H64.394V21.732C64.058 22.586 63.26 23.048 62.252 23.048ZM73.9222 13.612V17.7C73.3062 16.902 72.3822 16.51 71.3322 16.51C69.1622 16.51 67.5802 18.022 67.5802 20.29C67.5802 22.558 69.1622 24.084 71.3322 24.084C72.4242 24.084 73.3762 23.664 73.9782 22.824V24H75.2662V13.612H73.9222ZM71.4442 22.908C70.0162 22.908 68.9382 21.872 68.9382 20.29C68.9382 18.708 70.0162 17.686 71.4442 17.686C72.8582 17.686 73.9362 18.708 73.9362 20.29C73.9362 21.872 72.8582 22.908 71.4442 22.908ZM83.7109 24H85.0969V15.418H88.4569V14.2H80.3509V15.418H83.7109V24ZM90.896 17.826V16.58H89.608V24H90.952V20.304C90.952 18.68 91.848 17.798 93.29 17.798C93.388 17.798 93.486 17.798 93.598 17.812V16.51C92.296 16.51 91.372 16.958 90.896 17.826ZM97.9428 16.51C96.7528 16.51 95.6468 16.846 94.8768 17.462L95.4368 18.47C96.0108 17.98 96.9068 17.672 97.7888 17.672C99.1188 17.672 99.7768 18.33 99.7768 19.464V19.73H97.6488C95.4368 19.73 94.6668 20.71 94.6668 21.9C94.6668 23.188 95.7308 24.084 97.4108 24.084C98.5728 24.084 99.3988 23.692 99.8468 23.02V24H101.121V19.52C101.121 17.49 99.9728 16.51 97.9428 16.51ZM97.6348 23.048C96.6128 23.048 95.9968 22.586 95.9968 21.844C95.9968 21.214 96.3748 20.696 97.7048 20.696H99.7768V21.732C99.4408 22.586 98.6428 23.048 97.6348 23.048ZM106.883 24.084C108.213 24.084 109.319 23.524 109.907 22.488L108.885 21.844C108.409 22.572 107.681 22.908 106.869 22.908C105.413 22.908 104.321 21.9 104.321 20.29C104.321 18.708 105.413 17.686 106.869 17.686C107.681 17.686 108.409 18.022 108.885 18.75L109.907 18.092C109.319 17.056 108.213 16.51 106.883 16.51C104.601 16.51 102.963 18.078 102.963 20.29C102.963 22.502 104.601 24.084 106.883 24.084ZM117.221 24H118.873L115.443 19.646L118.565 16.58H116.941L112.895 20.276V13.612H111.551V24H112.895V21.97L114.435 20.542L117.221 24ZM120.755 15.152C121.287 15.152 121.665 14.76 121.665 14.256C121.665 13.78 121.273 13.402 120.755 13.402C120.237 13.402 119.845 13.794 119.845 14.284C119.845 14.774 120.237 15.152 120.755 15.152ZM120.083 24H121.427V16.58H120.083V24ZM127.955 16.51C126.779 16.51 125.827 16.944 125.281 17.7V16.58H123.993V24H125.337V20.178C125.337 18.568 126.261 17.714 127.689 17.714C128.963 17.714 129.691 18.428 129.691 19.884V24H131.035V19.73C131.035 17.546 129.761 16.51 127.955 16.51ZM139.387 16.58V17.728C138.757 16.916 137.749 16.51 136.643 16.51C134.501 16.51 132.877 17.952 132.877 20.094C132.877 22.236 134.501 23.692 136.643 23.692C137.707 23.692 138.673 23.314 139.317 22.544V23.132C139.317 24.812 138.519 25.624 136.769 25.624C135.677 25.624 134.599 25.246 133.913 24.658L133.269 25.694C134.081 26.422 135.453 26.8 136.811 26.8C139.331 26.8 140.661 25.61 140.661 22.992V16.58H139.387ZM136.797 22.516C135.299 22.516 134.235 21.522 134.235 20.094C134.235 18.652 135.299 17.686 136.797 17.686C138.281 17.686 139.345 18.652 139.345 20.094C139.345 21.522 138.281 22.516 136.797 22.516Z" fill="#EA536B"/>
</svg>
