<svg width="161" height="38" viewBox="0 0 161 38" fill="none" xmlns="http://www.w3.org/2000/svg">
<mask id="mask0_1361_11115" style="mask-type:alpha" maskUnits="userSpaceOnUse" x="0" y="0" width="161" height="38">
<rect width="161" height="38" fill="#D9D9D9"/>
</mask>
<g mask="url(#mask0_1361_11115)">
<path d="M77.1233 8.54V28H73.9313V14.672L67.9953 28H65.7833L59.8193 14.672V28H56.6273V8.54H60.0713L66.9033 23.8L73.7073 8.54H77.1233ZM80.2548 20.216C80.2548 18.6667 80.5721 17.2947 81.2068 16.1C81.8601 14.9053 82.7374 13.9813 83.8388 13.328C84.9588 12.656 86.1908 12.32 87.5348 12.32C88.7481 12.32 89.8028 12.5627 90.6988 13.048C91.6134 13.5147 92.3414 14.1027 92.8828 14.812V12.572H96.1028V28H92.8828V25.704C92.3414 26.432 91.6041 27.0387 90.6708 27.524C89.7374 28.0093 88.6734 28.252 87.4788 28.252C86.1534 28.252 84.9401 27.916 83.8388 27.244C82.7374 26.5533 81.8601 25.6013 81.2068 24.388C80.5721 23.156 80.2548 21.7653 80.2548 20.216ZM92.8828 20.272C92.8828 19.208 92.6588 18.284 92.2108 17.5C91.7814 16.716 91.2121 16.1187 90.5028 15.708C89.7934 15.2973 89.0281 15.092 88.2068 15.092C87.3854 15.092 86.6201 15.2973 85.9108 15.708C85.2014 16.1 84.6228 16.688 84.1748 17.472C83.7454 18.2373 83.5308 19.152 83.5308 20.216C83.5308 21.28 83.7454 22.2133 84.1748 23.016C84.6228 23.8187 85.2014 24.4347 85.9108 24.864C86.6388 25.2747 87.4041 25.48 88.2068 25.48C89.0281 25.48 89.7934 25.2747 90.5028 24.864C91.2121 24.4533 91.7814 23.856 92.2108 23.072C92.6588 22.2693 92.8828 21.336 92.8828 20.272ZM106.399 20.3L113.511 28H109.199L103.487 21.364V28H100.295V7.28H103.487V19.32L109.087 12.572H113.511L106.399 20.3ZM121.399 28.252C120.186 28.252 119.094 28.0373 118.123 27.608C117.171 27.16 116.415 26.5627 115.855 25.816C115.295 25.0507 114.997 24.2013 114.959 23.268H118.263C118.319 23.9213 118.627 24.472 119.187 24.92C119.766 25.3493 120.485 25.564 121.343 25.564C122.239 25.564 122.93 25.396 123.415 25.06C123.919 24.7053 124.171 24.2573 124.171 23.716C124.171 23.1373 123.891 22.708 123.331 22.428C122.79 22.148 121.922 21.84 120.727 21.504C119.57 21.1867 118.627 20.8787 117.899 20.58C117.171 20.2813 116.537 19.824 115.995 19.208C115.473 18.592 115.211 17.78 115.211 16.772C115.211 15.9507 115.454 15.204 115.939 14.532C116.425 13.8413 117.115 13.3 118.011 12.908C118.926 12.516 119.971 12.32 121.147 12.32C122.902 12.32 124.311 12.768 125.375 13.664C126.458 14.5413 127.037 15.7453 127.111 17.276H123.919C123.863 16.5853 123.583 16.0347 123.079 15.624C122.575 15.2133 121.894 15.008 121.035 15.008C120.195 15.008 119.551 15.1667 119.103 15.484C118.655 15.8013 118.431 16.2213 118.431 16.744C118.431 17.1547 118.581 17.5 118.879 17.78C119.178 18.06 119.542 18.284 119.971 18.452C120.401 18.6013 121.035 18.7973 121.875 19.04C122.995 19.3387 123.91 19.6467 124.619 19.964C125.347 20.2627 125.973 20.7107 126.495 21.308C127.018 21.9053 127.289 22.6987 127.307 23.688C127.307 24.5653 127.065 25.3493 126.579 26.04C126.094 26.7307 125.403 27.272 124.507 27.664C123.63 28.056 122.594 28.252 121.399 28.252ZM144.896 19.908C144.896 20.4867 144.859 21.0093 144.784 21.476H132.996C133.09 22.708 133.547 23.6973 134.368 24.444C135.19 25.1907 136.198 25.564 137.392 25.564C139.11 25.564 140.323 24.8453 141.032 23.408H144.476C144.01 24.8267 143.16 25.9933 141.928 26.908C140.715 27.804 139.203 28.252 137.392 28.252C135.918 28.252 134.592 27.9253 133.416 27.272C132.259 26.6 131.344 25.6667 130.672 24.472C130.019 23.2587 129.692 21.8587 129.692 20.272C129.692 18.6853 130.01 17.2947 130.644 16.1C131.298 14.8867 132.203 13.9533 133.36 13.3C134.536 12.6467 135.88 12.32 137.392 12.32C138.848 12.32 140.146 12.6373 141.284 13.272C142.423 13.9067 143.31 14.8027 143.944 15.96C144.579 17.0987 144.896 18.4147 144.896 19.908ZM141.564 18.9C141.546 17.724 141.126 16.7813 140.304 16.072C139.483 15.3627 138.466 15.008 137.252 15.008C136.151 15.008 135.208 15.3627 134.424 16.072C133.64 16.7627 133.174 17.7053 133.024 18.9H141.564ZM151.23 7.28V28H148.038V7.28H151.23ZM158.612 7.28V28H155.42V7.28H158.612Z" fill="black"/>
<path d="M31.797 9.49847C34.667 5.67044 40.6436 6.57689 42.2495 11.0838L45.1829 19.3162C47.404 25.5496 39.3795 30.2613 35.0184 25.2844L16.9554 4.67143C13.5974 0.839303 7.29285 2.67266 6.51346 7.70797L3.25904 28.7334C2.3035 34.9067 10.2417 38.2485 13.989 33.2504L31.797 9.49847Z" stroke="url(#paint0_linear_1361_11115)" stroke-width="4" stroke-linejoin="round"/>
</g>
<defs>
<linearGradient id="paint0_linear_1361_11115" x1="14.0395" y1="-8.33542" x2="60.4981" y2="55" gradientUnits="userSpaceOnUse">
<stop stop-color="#F3BC1B"/>
<stop offset="0.567708" stop-color="#E93E63"/>
</linearGradient>
</defs>
</svg>
