<svg width="267" height="37" viewBox="0 0 267 37" fill="none" xmlns="http://www.w3.org/2000/svg">
<rect width="267" height="37" rx="18.5" fill="#FF51EE" fill-opacity="0.1"/>
<path d="M16.332 18.0002L20.4568 22.125L29.2957 13.2861" stroke="#EA53DB" stroke-width="2" stroke-linecap="round" stroke-linejoin="round"/>
<path d="M49.9 24L49.886 14.2H48.738L44.706 21.088L40.618 14.2H39.47V24H40.814V16.902L44.356 22.81H45L48.542 16.86L48.556 24H49.9ZM58.2171 16.58V20.416C58.2171 22.012 57.3211 22.88 55.9211 22.88C54.6471 22.88 53.9191 22.152 53.9191 20.696V16.58H52.5751V20.85C52.5751 23.034 53.8491 24.084 55.7671 24.084C56.8171 24.084 57.7411 23.65 58.2871 22.88V24H59.5611V16.58H58.2171ZM62.1197 24H63.4637V13.612H62.1197V24ZM69.9596 22.6C69.6796 22.824 69.3016 22.95 68.9096 22.95C68.1676 22.95 67.7476 22.502 67.7476 21.704V17.686H69.8756V16.58H67.7476V14.956H66.4036V16.58H65.1436V17.686H66.4036V21.76C66.4036 23.258 67.2576 24.084 68.7556 24.084C69.3576 24.084 69.9736 23.916 70.3796 23.566L69.9596 22.6ZM72.6765 15.152C73.2085 15.152 73.5865 14.76 73.5865 14.256C73.5865 13.78 73.1945 13.402 72.6765 13.402C72.1585 13.402 71.7665 13.794 71.7665 14.284C71.7665 14.774 72.1585 15.152 72.6765 15.152ZM72.0045 24H73.3485V16.58H72.0045V24ZM80.4926 24.112C82.0186 24.112 83.3346 23.58 84.2306 22.572L83.3206 21.69C82.5646 22.488 81.6406 22.866 80.5626 22.866C78.3506 22.866 76.7126 21.27 76.7126 19.1C76.7126 16.93 78.3506 15.334 80.5626 15.334C81.6406 15.334 82.5646 15.698 83.3206 16.496L84.2306 15.614C83.3346 14.606 82.0186 14.088 80.5066 14.088C77.5246 14.088 75.3126 16.202 75.3126 19.1C75.3126 21.998 77.5246 24.112 80.4926 24.112ZM89.9938 16.51C88.8598 16.51 87.9358 16.916 87.3758 17.63V13.612H86.0318V24H87.3758V20.178C87.3758 18.568 88.2998 17.714 89.7278 17.714C91.0018 17.714 91.7298 18.428 91.7298 19.884V24H93.0738V19.73C93.0738 17.546 91.7998 16.51 89.9938 16.51ZM98.2631 16.51C97.0731 16.51 95.9671 16.846 95.1971 17.462L95.7571 18.47C96.3311 17.98 97.2271 17.672 98.1091 17.672C99.4391 17.672 100.097 18.33 100.097 19.464V19.73H97.9691C95.7571 19.73 94.9871 20.71 94.9871 21.9C94.9871 23.188 96.0511 24.084 97.7311 24.084C98.8931 24.084 99.7191 23.692 100.167 23.02V24H101.441V19.52C101.441 17.49 100.293 16.51 98.2631 16.51ZM97.9551 23.048C96.9331 23.048 96.3171 22.586 96.3171 21.844C96.3171 21.214 96.6951 20.696 98.0251 20.696H100.097V21.732C99.7611 22.586 98.9631 23.048 97.9551 23.048ZM107.89 16.51C106.714 16.51 105.762 16.944 105.216 17.7V16.58H103.928V24H105.272V20.178C105.272 18.568 106.196 17.714 107.624 17.714C108.898 17.714 109.626 18.428 109.626 19.884V24H110.97V19.73C110.97 17.546 109.696 16.51 107.89 16.51ZM117.42 16.51C116.244 16.51 115.292 16.944 114.746 17.7V16.58H113.458V24H114.802V20.178C114.802 18.568 115.726 17.714 117.154 17.714C118.428 17.714 119.156 18.428 119.156 19.884V24H120.5V19.73C120.5 17.546 119.226 16.51 117.42 16.51ZM129.734 20.332C129.734 18.05 128.208 16.51 126.066 16.51C123.924 16.51 122.342 18.092 122.342 20.29C122.342 22.502 123.938 24.084 126.332 24.084C127.564 24.084 128.586 23.664 129.258 22.88L128.516 22.012C127.97 22.614 127.242 22.908 126.374 22.908C124.904 22.908 123.854 22.04 123.686 20.738H129.706C129.72 20.612 129.734 20.444 129.734 20.332ZM126.066 17.644C127.368 17.644 128.306 18.526 128.446 19.772H123.686C123.826 18.512 124.778 17.644 126.066 17.644ZM131.6 24H132.944V13.612H131.6V24ZM143.848 24.112C145.374 24.112 146.69 23.58 147.586 22.572L146.676 21.69C145.92 22.488 144.996 22.866 143.918 22.866C141.706 22.866 140.068 21.27 140.068 19.1C140.068 16.93 141.706 15.334 143.918 15.334C144.996 15.334 145.92 15.698 146.676 16.496L147.586 15.614C146.69 14.606 145.374 14.088 143.862 14.088C140.88 14.088 138.668 16.202 138.668 19.1C138.668 21.998 140.88 24.112 143.848 24.112ZM152.251 24.084C154.477 24.084 156.101 22.502 156.101 20.29C156.101 18.078 154.477 16.51 152.251 16.51C150.025 16.51 148.387 18.078 148.387 20.29C148.387 22.502 150.025 24.084 152.251 24.084ZM152.251 22.908C150.823 22.908 149.745 21.872 149.745 20.29C149.745 18.708 150.823 17.686 152.251 17.686C153.679 17.686 154.743 18.708 154.743 20.29C154.743 21.872 153.679 22.908 152.251 22.908ZM167.242 16.51C165.982 16.51 164.946 17.042 164.386 17.882C163.896 16.958 162.944 16.51 161.81 16.51C160.69 16.51 159.78 16.93 159.248 17.686V16.58H157.96V24H159.304V20.178C159.304 18.568 160.186 17.714 161.53 17.714C162.748 17.714 163.448 18.428 163.448 19.884V24H164.792V20.178C164.792 18.568 165.674 17.714 167.018 17.714C168.236 17.714 168.936 18.428 168.936 19.884V24H170.28V19.73C170.28 17.546 169.048 16.51 167.242 16.51ZM182.035 16.51C180.775 16.51 179.739 17.042 179.179 17.882C178.689 16.958 177.737 16.51 176.603 16.51C175.483 16.51 174.573 16.93 174.041 17.686V16.58H172.753V24H174.097V20.178C174.097 18.568 174.979 17.714 176.323 17.714C177.541 17.714 178.241 18.428 178.241 19.884V24H179.585V20.178C179.585 18.568 180.467 17.714 181.811 17.714C183.029 17.714 183.729 18.428 183.729 19.884V24H185.073V19.73C185.073 17.546 183.841 16.51 182.035 16.51ZM193.117 16.58V20.416C193.117 22.012 192.221 22.88 190.821 22.88C189.547 22.88 188.819 22.152 188.819 20.696V16.58H187.475V20.85C187.475 23.034 188.749 24.084 190.667 24.084C191.717 24.084 192.641 23.65 193.187 22.88V24H194.461V16.58H193.117ZM200.982 16.51C199.806 16.51 198.854 16.944 198.308 17.7V16.58H197.02V24H198.364V20.178C198.364 18.568 199.288 17.714 200.716 17.714C201.99 17.714 202.718 18.428 202.718 19.884V24H204.062V19.73C204.062 17.546 202.788 16.51 200.982 16.51ZM207.221 15.152C207.753 15.152 208.131 14.76 208.131 14.256C208.131 13.78 207.739 13.402 207.221 13.402C206.703 13.402 206.311 13.794 206.311 14.284C206.311 14.774 206.703 15.152 207.221 15.152ZM206.549 24H207.893V16.58H206.549V24ZM213.694 24.084C215.024 24.084 216.13 23.524 216.718 22.488L215.696 21.844C215.22 22.572 214.492 22.908 213.68 22.908C212.224 22.908 211.132 21.9 211.132 20.29C211.132 18.708 212.224 17.686 213.68 17.686C214.492 17.686 215.22 18.022 215.696 18.75L216.718 18.092C216.13 17.056 215.024 16.51 213.694 16.51C211.412 16.51 209.774 18.078 209.774 20.29C209.774 22.502 211.412 24.084 213.694 24.084ZM221.16 16.51C219.97 16.51 218.864 16.846 218.094 17.462L218.654 18.47C219.228 17.98 220.124 17.672 221.006 17.672C222.336 17.672 222.994 18.33 222.994 19.464V19.73H220.866C218.654 19.73 217.884 20.71 217.884 21.9C217.884 23.188 218.948 24.084 220.628 24.084C221.79 24.084 222.616 23.692 223.064 23.02V24H224.338V19.52C224.338 17.49 223.19 16.51 221.16 16.51ZM220.852 23.048C219.83 23.048 219.214 22.586 219.214 21.844C219.214 21.214 219.592 20.696 220.922 20.696H222.994V21.732C222.658 22.586 221.86 23.048 220.852 23.048ZM230.577 22.6C230.297 22.824 229.919 22.95 229.527 22.95C228.785 22.95 228.365 22.502 228.365 21.704V17.686H230.493V16.58H228.365V14.956H227.021V16.58H225.761V17.686H227.021V21.76C227.021 23.258 227.875 24.084 229.373 24.084C229.975 24.084 230.591 23.916 230.997 23.566L230.577 22.6ZM233.294 15.152C233.826 15.152 234.204 14.76 234.204 14.256C234.204 13.78 233.812 13.402 233.294 13.402C232.776 13.402 232.384 13.794 232.384 14.284C232.384 14.774 232.776 15.152 233.294 15.152ZM232.622 24H233.966V16.58H232.622V24ZM239.71 24.084C241.936 24.084 243.56 22.502 243.56 20.29C243.56 18.078 241.936 16.51 239.71 16.51C237.484 16.51 235.846 18.078 235.846 20.29C235.846 22.502 237.484 24.084 239.71 24.084ZM239.71 22.908C238.282 22.908 237.204 21.872 237.204 20.29C237.204 18.708 238.282 17.686 239.71 17.686C241.138 17.686 242.202 18.708 242.202 20.29C242.202 21.872 241.138 22.908 239.71 22.908ZM249.381 16.51C248.205 16.51 247.253 16.944 246.707 17.7V16.58H245.419V24H246.763V20.178C246.763 18.568 247.687 17.714 249.115 17.714C250.389 17.714 251.117 18.428 251.117 19.884V24H252.461V19.73C252.461 17.546 251.187 16.51 249.381 16.51Z" fill="#EA53DB"/>
</svg>
