<svg width="152" height="37" viewBox="0 0 152 37" fill="none" xmlns="http://www.w3.org/2000/svg">
<rect width="152" height="37" rx="18.5" fill="#2AB9EF" fill-opacity="0.06"/>
<path d="M20.332 18.0002L24.4568 22.125L33.2957 13.2861" stroke="#44B7E8" stroke-width="2" stroke-linecap="round" stroke-linejoin="round"/>
<path d="M41.47 24H45.6C48.75 24 50.892 22.012 50.892 19.1C50.892 16.188 48.75 14.2 45.6 14.2H41.47V24ZM42.87 22.782V15.418H45.516C47.938 15.418 49.492 16.902 49.492 19.1C49.492 21.298 47.938 22.782 45.516 22.782H42.87ZM59.5464 20.332C59.5464 18.05 58.0204 16.51 55.8784 16.51C53.7364 16.51 52.1544 18.092 52.1544 20.29C52.1544 22.502 53.7504 24.084 56.1444 24.084C57.3764 24.084 58.3984 23.664 59.0704 22.88L58.3284 22.012C57.7824 22.614 57.0544 22.908 56.1864 22.908C54.7164 22.908 53.6664 22.04 53.4984 20.738H59.5184C59.5324 20.612 59.5464 20.444 59.5464 20.332ZM55.8784 17.644C57.1804 17.644 58.1184 18.526 58.2584 19.772H53.4984C53.6384 18.512 54.5904 17.644 55.8784 17.644ZM65.1647 22.6C64.8847 22.824 64.5067 22.95 64.1147 22.95C63.3727 22.95 62.9527 22.502 62.9527 21.704V17.686H65.0807V16.58H62.9527V14.956H61.6087V16.58H60.3487V17.686H61.6087V21.76C61.6087 23.258 62.4627 24.084 63.9607 24.084C64.5627 24.084 65.1787 23.916 65.5847 23.566L65.1647 22.6ZM69.9115 16.51C68.7215 16.51 67.6155 16.846 66.8455 17.462L67.4055 18.47C67.9795 17.98 68.8755 17.672 69.7575 17.672C71.0875 17.672 71.7455 18.33 71.7455 19.464V19.73H69.6175C67.4055 19.73 66.6355 20.71 66.6355 21.9C66.6355 23.188 67.6995 24.084 69.3795 24.084C70.5415 24.084 71.3675 23.692 71.8155 23.02V24H73.0895V19.52C73.0895 17.49 71.9415 16.51 69.9115 16.51ZM69.6035 23.048C68.5815 23.048 67.9655 22.586 67.9655 21.844C67.9655 21.214 68.3435 20.696 69.6735 20.696H71.7455V21.732C71.4095 22.586 70.6115 23.048 69.6035 23.048ZM76.2487 15.152C76.7807 15.152 77.1587 14.76 77.1587 14.256C77.1587 13.78 76.7667 13.402 76.2487 13.402C75.7307 13.402 75.3387 13.794 75.3387 14.284C75.3387 14.774 75.7307 15.152 76.2487 15.152ZM75.5767 24H76.9207V16.58H75.5767V24ZM79.4869 24H80.8309V13.612H79.4869V24ZM95.4308 24L93.1068 20.71C94.4788 20.22 95.2628 19.128 95.2628 17.616C95.2628 15.488 93.7228 14.2 91.1748 14.2H87.3528V24H88.7528V21.018H91.1748C91.3848 21.018 91.5948 21.004 91.7908 20.99L93.9048 24H95.4308ZM91.1328 19.828H88.7528V15.418H91.1328C92.9248 15.418 93.8628 16.216 93.8628 17.616C93.8628 19.016 92.9248 19.828 91.1328 19.828ZM104.035 20.332C104.035 18.05 102.509 16.51 100.367 16.51C98.2247 16.51 96.6427 18.092 96.6427 20.29C96.6427 22.502 98.2387 24.084 100.633 24.084C101.865 24.084 102.887 23.664 103.559 22.88L102.817 22.012C102.271 22.614 101.543 22.908 100.675 22.908C99.2047 22.908 98.1547 22.04 97.9867 20.738H104.007C104.021 20.612 104.035 20.444 104.035 20.332ZM100.367 17.644C101.669 17.644 102.607 18.526 102.747 19.772H97.9867C98.1267 18.512 99.0787 17.644 100.367 17.644ZM109.835 16.51C108.743 16.51 107.791 16.93 107.189 17.756V16.58H105.901V26.716H107.245V22.88C107.861 23.678 108.785 24.084 109.835 24.084C112.005 24.084 113.587 22.572 113.587 20.29C113.587 18.022 112.005 16.51 109.835 16.51ZM109.723 22.908C108.309 22.908 107.231 21.872 107.231 20.29C107.231 18.722 108.309 17.686 109.723 17.686C111.151 17.686 112.229 18.722 112.229 20.29C112.229 21.872 111.151 22.908 109.723 22.908ZM118.622 24.084C120.848 24.084 122.472 22.502 122.472 20.29C122.472 18.078 120.848 16.51 118.622 16.51C116.396 16.51 114.758 18.078 114.758 20.29C114.758 22.502 116.396 24.084 118.622 24.084ZM118.622 22.908C117.194 22.908 116.116 21.872 116.116 20.29C116.116 18.708 117.194 17.686 118.622 17.686C120.05 17.686 121.114 18.708 121.114 20.29C121.114 21.872 120.05 22.908 118.622 22.908ZM125.619 17.826V16.58H124.331V24H125.675V20.304C125.675 18.68 126.571 17.798 128.013 17.798C128.111 17.798 128.209 17.798 128.321 17.812V16.51C127.019 16.51 126.095 16.958 125.619 17.826ZM134.03 22.6C133.75 22.824 133.372 22.95 132.98 22.95C132.238 22.95 131.818 22.502 131.818 21.704V17.686H133.946V16.58H131.818V14.956H130.474V16.58H129.214V17.686H130.474V21.76C130.474 23.258 131.328 24.084 132.826 24.084C133.428 24.084 134.044 23.916 134.45 23.566L134.03 22.6Z" fill="#00B3FF"/>
</svg>
