<svg width="156" height="37" viewBox="0 0 156 37" fill="none" xmlns="http://www.w3.org/2000/svg">
<rect width="156" height="37" rx="18.5" fill="#66C07F" fill-opacity="0.06"/>
<path d="M20.332 18.0002L24.4568 22.125L33.2957 13.2861" stroke="#66C07F" stroke-width="2" stroke-linecap="round" stroke-linejoin="round"/>
<path d="M45.326 24.112C44.5793 24.112 43.8653 24 43.184 23.776C42.5027 23.5427 41.966 23.244 41.574 22.88L42.092 21.788C42.4653 22.1147 42.9413 22.3853 43.52 22.6C44.0987 22.8147 44.7007 22.922 45.326 22.922C45.8953 22.922 46.3573 22.8567 46.712 22.726C47.0667 22.5953 47.328 22.418 47.496 22.194C47.664 21.9607 47.748 21.6993 47.748 21.41C47.748 21.074 47.636 20.8033 47.412 20.598C47.1973 20.3927 46.9127 20.2293 46.558 20.108C46.2127 19.9773 45.83 19.8653 45.41 19.772C44.99 19.6787 44.5653 19.5713 44.136 19.45C43.716 19.3193 43.3287 19.156 42.974 18.96C42.6287 18.764 42.3487 18.5027 42.134 18.176C41.9193 17.84 41.812 17.4107 41.812 16.888C41.812 16.384 41.9427 15.922 42.204 15.502C42.4747 15.0727 42.8853 14.732 43.436 14.48C43.996 14.2187 44.7053 14.088 45.564 14.088C46.1333 14.088 46.698 14.1627 47.258 14.312C47.818 14.4613 48.3033 14.676 48.714 14.956L48.252 16.076C47.832 15.796 47.3887 15.5953 46.922 15.474C46.4553 15.3433 46.0027 15.278 45.564 15.278C45.0133 15.278 44.5607 15.348 44.206 15.488C43.8513 15.628 43.59 15.8147 43.422 16.048C43.2633 16.2813 43.184 16.5427 43.184 16.832C43.184 17.1773 43.2913 17.4527 43.506 17.658C43.73 17.8633 44.0147 18.0267 44.36 18.148C44.7147 18.2693 45.102 18.3813 45.522 18.484C45.942 18.5773 46.362 18.6847 46.782 18.806C47.2113 18.9273 47.5987 19.086 47.944 19.282C48.2987 19.478 48.5833 19.7393 48.798 20.066C49.0127 20.3927 49.12 20.8127 49.12 21.326C49.12 21.8207 48.9847 22.2827 48.714 22.712C48.4433 23.132 48.0233 23.4727 47.454 23.734C46.894 23.986 46.1847 24.112 45.326 24.112ZM55.5753 24V22.432L55.5053 22.138V19.464C55.5053 18.8947 55.3373 18.456 55.0013 18.148C54.6746 17.8307 54.18 17.672 53.5173 17.672C53.0786 17.672 52.6493 17.7467 52.2293 17.896C51.8093 18.036 51.4546 18.2273 51.1653 18.47L50.6053 17.462C50.988 17.154 51.4453 16.9207 51.9773 16.762C52.5186 16.594 53.0833 16.51 53.6713 16.51C54.6886 16.51 55.4726 16.7573 56.0233 17.252C56.574 17.7467 56.8493 18.5027 56.8493 19.52V24H55.5753ZM53.1393 24.084C52.5886 24.084 52.1033 23.9907 51.6833 23.804C51.2726 23.6173 50.9553 23.3607 50.7313 23.034C50.5073 22.698 50.3953 22.32 50.3953 21.9C50.3953 21.4987 50.4886 21.1347 50.6753 20.808C50.8713 20.4813 51.184 20.22 51.6133 20.024C52.052 19.828 52.64 19.73 53.3773 19.73H55.7293V20.696H53.4333C52.7613 20.696 52.3086 20.808 52.0753 21.032C51.842 21.256 51.7253 21.5267 51.7253 21.844C51.7253 22.208 51.87 22.502 52.1593 22.726C52.4486 22.9407 52.85 23.048 53.3633 23.048C53.8673 23.048 54.306 22.936 54.6793 22.712C55.062 22.488 55.3373 22.1613 55.5053 21.732L55.7713 22.656C55.594 23.0947 55.2813 23.4447 54.8333 23.706C54.3853 23.958 53.8206 24.084 53.1393 24.084ZM59.3365 24V13.612H60.6805V24H59.3365ZM66.5507 24.084C65.7573 24.084 65.0573 23.9207 64.4507 23.594C63.8533 23.2673 63.3867 22.8193 63.0507 22.25C62.724 21.6807 62.5607 21.0273 62.5607 20.29C62.5607 19.5527 62.7193 18.8993 63.0367 18.33C63.3633 17.7607 63.8067 17.3173 64.3667 17C64.936 16.6733 65.5753 16.51 66.2847 16.51C67.0033 16.51 67.638 16.6687 68.1887 16.986C68.7393 17.3033 69.1687 17.7513 69.4767 18.33C69.794 18.8993 69.9527 19.5667 69.9527 20.332C69.9527 20.388 69.948 20.4533 69.9387 20.528C69.9387 20.6027 69.934 20.6727 69.9247 20.738H63.6107V19.772H69.2247L68.6787 20.108C68.688 19.632 68.59 19.2073 68.3847 18.834C68.1793 18.4607 67.8947 18.1713 67.5307 17.966C67.176 17.7513 66.7607 17.644 66.2847 17.644C65.818 17.644 65.4027 17.7513 65.0387 17.966C64.6747 18.1713 64.39 18.4653 64.1847 18.848C63.9793 19.2213 63.8767 19.6507 63.8767 20.136V20.36C63.8767 20.8547 63.9887 21.298 64.2127 21.69C64.446 22.0727 64.768 22.3713 65.1787 22.586C65.5893 22.8007 66.0607 22.908 66.5927 22.908C67.0313 22.908 67.428 22.8333 67.7827 22.684C68.1467 22.5347 68.464 22.3107 68.7347 22.012L69.4767 22.88C69.1407 23.272 68.7207 23.5707 68.2167 23.776C67.722 23.9813 67.1667 24.084 66.5507 24.084ZM73.9469 24.084C73.3309 24.084 72.7429 24 72.1829 23.832C71.6323 23.664 71.1983 23.4587 70.8809 23.216L71.4409 22.152C71.7583 22.3667 72.1503 22.5487 72.6169 22.698C73.0836 22.8473 73.5596 22.922 74.0449 22.922C74.6703 22.922 75.1183 22.8333 75.3889 22.656C75.6689 22.4787 75.8089 22.2313 75.8089 21.914C75.8089 21.6807 75.7249 21.4987 75.5569 21.368C75.3889 21.2373 75.1649 21.1393 74.8849 21.074C74.6143 21.0087 74.3109 20.9527 73.9749 20.906C73.6389 20.85 73.3029 20.7847 72.9669 20.71C72.6309 20.626 72.3229 20.514 72.0429 20.374C71.7629 20.2247 71.5389 20.024 71.3709 19.772C71.2029 19.5107 71.1189 19.1653 71.1189 18.736C71.1189 18.288 71.2449 17.896 71.4969 17.56C71.7489 17.224 72.1036 16.9673 72.5609 16.79C73.0276 16.6033 73.5783 16.51 74.2129 16.51C74.6983 16.51 75.1883 16.5707 75.6829 16.692C76.1869 16.804 76.5976 16.9673 76.9149 17.182L76.3409 18.246C76.0049 18.022 75.6549 17.868 75.2909 17.784C74.9269 17.7 74.5629 17.658 74.1989 17.658C73.6109 17.658 73.1723 17.756 72.8829 17.952C72.5936 18.1387 72.4489 18.3813 72.4489 18.68C72.4489 18.932 72.5329 19.128 72.7009 19.268C72.8783 19.3987 73.1023 19.5013 73.3729 19.576C73.6529 19.6507 73.9609 19.716 74.2969 19.772C74.6329 19.8187 74.9689 19.884 75.3049 19.968C75.6409 20.0427 75.9443 20.15 76.2149 20.29C76.4949 20.43 76.7189 20.626 76.8869 20.878C77.0643 21.13 77.1529 21.466 77.1529 21.886C77.1529 22.334 77.0223 22.7213 76.7609 23.048C76.4996 23.3747 76.1309 23.6313 75.6549 23.818C75.1789 23.9953 74.6096 24.084 73.9469 24.084ZM82.7884 24V14.2H86.6104C87.469 14.2 88.2017 14.3353 88.8084 14.606C89.415 14.8767 89.8817 15.2687 90.2084 15.782C90.535 16.2953 90.6984 16.9067 90.6984 17.616C90.6984 18.3253 90.535 18.9367 90.2084 19.45C89.8817 19.954 89.415 20.346 88.8084 20.626C88.2017 20.8967 87.469 21.032 86.6104 21.032H83.5584L84.1884 20.374V24H82.7884ZM84.1884 20.514L83.5584 19.814H86.5684C87.4644 19.814 88.141 19.6227 88.5984 19.24C89.065 18.8573 89.2984 18.316 89.2984 17.616C89.2984 16.916 89.065 16.3747 88.5984 15.992C88.141 15.6093 87.4644 15.418 86.5684 15.418H83.5584L84.1884 14.718V20.514ZM92.6959 24V16.58H94.0399V24H92.6959ZM93.3679 15.152C93.1065 15.152 92.8872 15.068 92.7099 14.9C92.5419 14.732 92.4579 14.5267 92.4579 14.284C92.4579 14.032 92.5419 13.822 92.7099 13.654C92.8872 13.486 93.1065 13.402 93.3679 13.402C93.6292 13.402 93.8439 13.486 94.0119 13.654C94.1892 13.8127 94.2779 14.0133 94.2779 14.256C94.2779 14.508 94.1939 14.7227 94.0259 14.9C93.8579 15.068 93.6385 15.152 93.3679 15.152ZM100.54 24.084C99.924 24.084 99.3594 23.944 98.846 23.664C98.342 23.3747 97.936 22.95 97.628 22.39C97.3294 21.83 97.18 21.13 97.18 20.29C97.18 19.45 97.3247 18.75 97.614 18.19C97.9127 17.63 98.314 17.21 98.818 16.93C99.3314 16.65 99.9054 16.51 100.54 16.51C101.268 16.51 101.912 16.6687 102.472 16.986C103.032 17.3033 103.475 17.7467 103.802 18.316C104.129 18.876 104.292 19.534 104.292 20.29C104.292 21.046 104.129 21.7087 103.802 22.278C103.475 22.8473 103.032 23.2907 102.472 23.608C101.912 23.9253 101.268 24.084 100.54 24.084ZM96.606 26.716V16.58H97.894V18.582L97.81 20.304L97.95 22.026V26.716H96.606ZM100.428 22.908C100.904 22.908 101.329 22.8007 101.702 22.586C102.085 22.3713 102.383 22.068 102.598 21.676C102.822 21.2747 102.934 20.8127 102.934 20.29C102.934 19.758 102.822 19.3007 102.598 18.918C102.383 18.526 102.085 18.2227 101.702 18.008C101.329 17.7933 100.904 17.686 100.428 17.686C99.9614 17.686 99.5367 17.7933 99.154 18.008C98.7807 18.2227 98.482 18.526 98.258 18.918C98.0434 19.3007 97.936 19.758 97.936 20.29C97.936 20.8127 98.0434 21.2747 98.258 21.676C98.482 22.068 98.7807 22.3713 99.154 22.586C99.5367 22.8007 99.9614 22.908 100.428 22.908ZM109.453 24.084C108.66 24.084 107.96 23.9207 107.353 23.594C106.756 23.2673 106.289 22.8193 105.953 22.25C105.626 21.6807 105.463 21.0273 105.463 20.29C105.463 19.5527 105.622 18.8993 105.939 18.33C106.266 17.7607 106.709 17.3173 107.269 17C107.838 16.6733 108.478 16.51 109.187 16.51C109.906 16.51 110.54 16.6687 111.091 16.986C111.642 17.3033 112.071 17.7513 112.379 18.33C112.696 18.8993 112.855 19.5667 112.855 20.332C112.855 20.388 112.85 20.4533 112.841 20.528C112.841 20.6027 112.836 20.6727 112.827 20.738H106.513V19.772H112.127L111.581 20.108C111.59 19.632 111.492 19.2073 111.287 18.834C111.082 18.4607 110.797 18.1713 110.433 17.966C110.078 17.7513 109.663 17.644 109.187 17.644C108.72 17.644 108.305 17.7513 107.941 17.966C107.577 18.1713 107.292 18.4653 107.087 18.848C106.882 19.2213 106.779 19.6507 106.779 20.136V20.36C106.779 20.8547 106.891 21.298 107.115 21.69C107.348 22.0727 107.67 22.3713 108.081 22.586C108.492 22.8007 108.963 22.908 109.495 22.908C109.934 22.908 110.33 22.8333 110.685 22.684C111.049 22.5347 111.366 22.3107 111.637 22.012L112.379 22.88C112.043 23.272 111.623 23.5707 111.119 23.776C110.624 23.9813 110.069 24.084 109.453 24.084ZM114.721 24V13.612H116.065V24H114.721ZM118.631 24V16.58H119.975V24H118.631ZM119.303 15.152C119.042 15.152 118.823 15.068 118.645 14.9C118.477 14.732 118.393 14.5267 118.393 14.284C118.393 14.032 118.477 13.822 118.645 13.654C118.823 13.486 119.042 13.402 119.303 13.402C119.565 13.402 119.779 13.486 119.947 13.654C120.125 13.8127 120.213 14.0133 120.213 14.256C120.213 14.508 120.129 14.7227 119.961 14.9C119.793 15.068 119.574 15.152 119.303 15.152ZM126.504 16.51C127.11 16.51 127.642 16.6267 128.1 16.86C128.566 17.0933 128.93 17.448 129.192 17.924C129.453 18.4 129.584 19.002 129.584 19.73V24H128.24V19.884C128.24 19.1653 128.062 18.624 127.708 18.26C127.362 17.896 126.872 17.714 126.238 17.714C125.762 17.714 125.346 17.8073 124.992 17.994C124.637 18.1807 124.362 18.456 124.166 18.82C123.979 19.184 123.886 19.6367 123.886 20.178V24H122.542V16.58H123.83V18.582L123.62 18.05C123.862 17.5647 124.236 17.1867 124.74 16.916C125.244 16.6453 125.832 16.51 126.504 16.51ZM135.375 24.084C134.582 24.084 133.882 23.9207 133.275 23.594C132.678 23.2673 132.211 22.8193 131.875 22.25C131.548 21.6807 131.385 21.0273 131.385 20.29C131.385 19.5527 131.544 18.8993 131.861 18.33C132.188 17.7607 132.631 17.3173 133.191 17C133.76 16.6733 134.4 16.51 135.109 16.51C135.828 16.51 136.462 16.6687 137.013 16.986C137.564 17.3033 137.993 17.7513 138.301 18.33C138.618 18.8993 138.777 19.5667 138.777 20.332C138.777 20.388 138.772 20.4533 138.763 20.528C138.763 20.6027 138.758 20.6727 138.749 20.738H132.435V19.772H138.049L137.503 20.108C137.512 19.632 137.414 19.2073 137.209 18.834C137.004 18.4607 136.719 18.1713 136.355 17.966C136 17.7513 135.585 17.644 135.109 17.644C134.642 17.644 134.227 17.7513 133.863 17.966C133.499 18.1713 133.214 18.4653 133.009 18.848C132.804 19.2213 132.701 19.6507 132.701 20.136V20.36C132.701 20.8547 132.813 21.298 133.037 21.69C133.27 22.0727 133.592 22.3713 134.003 22.586C134.414 22.8007 134.885 22.908 135.417 22.908C135.856 22.908 136.252 22.8333 136.607 22.684C136.971 22.5347 137.288 22.3107 137.559 22.012L138.301 22.88C137.965 23.272 137.545 23.5707 137.041 23.776C136.546 23.9813 135.991 24.084 135.375 24.084Z" fill="#66C07F"/>
</svg>
