<svg width="162" height="37" viewBox="0 0 162 37" fill="none" xmlns="http://www.w3.org/2000/svg">
<rect width="162" height="37" rx="18.5" fill="#FFC248" fill-opacity="0.06"/>
<path d="M18.332 18.0002L22.4568 22.125L31.2957 13.2861" stroke="#FFAC03" stroke-width="2" stroke-linecap="round" stroke-linejoin="round"/>
<path d="M46.326 24.112C48.916 24.112 50.12 22.824 50.12 21.326C50.12 17.728 44.184 19.226 44.184 16.832C44.184 15.978 44.898 15.278 46.564 15.278C47.432 15.278 48.398 15.53 49.252 16.076L49.714 14.956C48.902 14.396 47.712 14.088 46.564 14.088C43.988 14.088 42.812 15.376 42.812 16.888C42.812 20.528 48.748 19.016 48.748 21.41C48.748 22.264 48.02 22.922 46.326 22.922C45.066 22.922 43.82 22.446 43.092 21.788L42.574 22.88C43.358 23.608 44.828 24.112 46.326 24.112ZM54.6713 16.51C53.4813 16.51 52.3753 16.846 51.6053 17.462L52.1653 18.47C52.7393 17.98 53.6353 17.672 54.5173 17.672C55.8473 17.672 56.5053 18.33 56.5053 19.464V19.73H54.3773C52.1653 19.73 51.3953 20.71 51.3953 21.9C51.3953 23.188 52.4593 24.084 54.1393 24.084C55.3013 24.084 56.1273 23.692 56.5753 23.02V24H57.8493V19.52C57.8493 17.49 56.7013 16.51 54.6713 16.51ZM54.3633 23.048C53.3413 23.048 52.7253 22.586 52.7253 21.844C52.7253 21.214 53.1033 20.696 54.4333 20.696H56.5053V21.732C56.1693 22.586 55.3713 23.048 54.3633 23.048ZM60.3365 24H61.6805V13.612H60.3365V24ZM70.9527 20.332C70.9527 18.05 69.4267 16.51 67.2847 16.51C65.1427 16.51 63.5607 18.092 63.5607 20.29C63.5607 22.502 65.1567 24.084 67.5507 24.084C68.7827 24.084 69.8047 23.664 70.4767 22.88L69.7347 22.012C69.1887 22.614 68.4607 22.908 67.5927 22.908C66.1227 22.908 65.0727 22.04 64.9047 20.738H70.9247C70.9387 20.612 70.9527 20.444 70.9527 20.332ZM67.2847 17.644C68.5867 17.644 69.5247 18.526 69.6647 19.772H64.9047C65.0447 18.512 65.9967 17.644 67.2847 17.644ZM74.9469 24.084C76.9209 24.084 78.1529 23.23 78.1529 21.886C78.1529 19.002 73.4489 20.43 73.4489 18.68C73.4489 18.092 74.0229 17.658 75.1989 17.658C75.9269 17.658 76.6689 17.812 77.3409 18.246L77.9149 17.182C77.2709 16.762 76.1789 16.51 75.2129 16.51C73.3089 16.51 72.1189 17.406 72.1189 18.736C72.1189 21.69 76.8089 20.248 76.8089 21.914C76.8089 22.544 76.2909 22.922 75.0449 22.922C74.0789 22.922 73.0709 22.6 72.4409 22.152L71.8809 23.216C72.4969 23.706 73.7149 24.084 74.9469 24.084ZM91.1104 24H92.5804L88.1284 14.2H86.7424L82.3044 24H83.7464L84.8244 21.55H90.0324L91.1104 24ZM85.3144 20.43L87.4284 15.628L89.5424 20.43H85.3144ZM97.8083 16.51C96.6323 16.51 95.6803 16.944 95.1343 17.7V16.58H93.8463V24H95.1903V20.178C95.1903 18.568 96.1143 17.714 97.5423 17.714C98.8163 17.714 99.5443 18.428 99.5443 19.884V24H100.888V19.73C100.888 17.546 99.6143 16.51 97.8083 16.51ZM106.078 16.51C104.888 16.51 103.782 16.846 103.012 17.462L103.572 18.47C104.146 17.98 105.042 17.672 105.924 17.672C107.254 17.672 107.912 18.33 107.912 19.464V19.73H105.784C103.572 19.73 102.802 20.71 102.802 21.9C102.802 23.188 103.866 24.084 105.546 24.084C106.708 24.084 107.534 23.692 107.982 23.02V24H109.256V19.52C109.256 17.49 108.108 16.51 106.078 16.51ZM105.77 23.048C104.748 23.048 104.132 22.586 104.132 21.844C104.132 21.214 104.51 20.696 105.84 20.696H107.912V21.732C107.576 22.586 106.778 23.048 105.77 23.048ZM111.743 24H113.087V13.612H111.743V24ZM120.903 16.58L118.341 22.516L115.751 16.58H114.351L117.627 23.986L117.389 24.504C117.025 25.358 116.619 25.652 115.975 25.652C115.471 25.652 115.009 25.456 114.645 25.106L114.071 26.114C114.533 26.562 115.261 26.8 115.975 26.8C117.109 26.8 117.963 26.31 118.621 24.742L122.219 16.58H120.903ZM127.43 22.6C127.15 22.824 126.772 22.95 126.38 22.95C125.638 22.95 125.218 22.502 125.218 21.704V17.686H127.346V16.58H125.218V14.956H123.874V16.58H122.614V17.686H123.874V21.76C123.874 23.258 124.728 24.084 126.226 24.084C126.828 24.084 127.444 23.916 127.85 23.566L127.43 22.6ZM130.147 15.152C130.679 15.152 131.057 14.76 131.057 14.256C131.057 13.78 130.665 13.402 130.147 13.402C129.629 13.402 129.237 13.794 129.237 14.284C129.237 14.774 129.629 15.152 130.147 15.152ZM129.475 24H130.819V16.58H129.475V24ZM136.619 24.084C137.949 24.084 139.055 23.524 139.643 22.488L138.621 21.844C138.145 22.572 137.417 22.908 136.605 22.908C135.149 22.908 134.057 21.9 134.057 20.29C134.057 18.708 135.149 17.686 136.605 17.686C137.417 17.686 138.145 18.022 138.621 18.75L139.643 18.092C139.055 17.056 137.949 16.51 136.619 16.51C134.337 16.51 132.699 18.078 132.699 20.29C132.699 22.502 134.337 24.084 136.619 24.084ZM143.511 24.084C145.485 24.084 146.717 23.23 146.717 21.886C146.717 19.002 142.013 20.43 142.013 18.68C142.013 18.092 142.587 17.658 143.763 17.658C144.491 17.658 145.233 17.812 145.905 18.246L146.479 17.182C145.835 16.762 144.743 16.51 143.777 16.51C141.873 16.51 140.683 17.406 140.683 18.736C140.683 21.69 145.373 20.248 145.373 21.914C145.373 22.544 144.855 22.922 143.609 22.922C142.643 22.922 141.635 22.6 141.005 22.152L140.445 23.216C141.061 23.706 142.279 24.084 143.511 24.084Z" fill="#FFAC03"/>
</svg>
