<svg width="186" height="37" viewBox="0 0 186 37" fill="none" xmlns="http://www.w3.org/2000/svg">
<rect width="186" height="37" rx="18.5" fill="#004DFF" fill-opacity="0.06"/>
<path d="M43.416 24H44.802V15.418H48.162V14.2H40.056V15.418H43.416V24ZM51.7963 16.51C50.6063 16.51 49.5003 16.846 48.7303 17.462L49.2903 18.47C49.8643 17.98 50.7603 17.672 51.6423 17.672C52.9723 17.672 53.6303 18.33 53.6303 19.464V19.73H51.5023C49.2903 19.73 48.5203 20.71 48.5203 21.9C48.5203 23.188 49.5843 24.084 51.2643 24.084C52.4263 24.084 53.2523 23.692 53.7003 23.02V24H54.9743V19.52C54.9743 17.49 53.8263 16.51 51.7963 16.51ZM51.4883 23.048C50.4663 23.048 49.8503 22.586 49.8503 21.844C49.8503 21.214 50.2283 20.696 51.5583 20.696H53.6303V21.732C53.2943 22.586 52.4963 23.048 51.4883 23.048ZM59.5895 24.084C61.5635 24.084 62.7955 23.23 62.7955 21.886C62.7955 19.002 58.0915 20.43 58.0915 18.68C58.0915 18.092 58.6655 17.658 59.8415 17.658C60.5695 17.658 61.3115 17.812 61.9835 18.246L62.5575 17.182C61.9135 16.762 60.8215 16.51 59.8555 16.51C57.9515 16.51 56.7615 17.406 56.7615 18.736C56.7615 21.69 61.4515 20.248 61.4515 21.914C61.4515 22.544 60.9335 22.922 59.6875 22.922C58.7215 22.922 57.7135 22.6 57.0835 22.152L56.5235 23.216C57.1395 23.706 58.3575 24.084 59.5895 24.084ZM70.1452 24H71.7972L68.3672 19.646L71.4892 16.58H69.8652L65.8192 20.276V13.612H64.4752V24H65.8192V21.97L67.3592 20.542L70.1452 24ZM87.4879 24L87.4739 14.2H86.3259L82.2939 21.088L78.2059 14.2H77.0579V24H78.4019V16.902L81.9439 22.81H82.5879L86.1299 16.86L86.1439 24H87.4879ZM92.935 16.51C91.745 16.51 90.639 16.846 89.869 17.462L90.429 18.47C91.003 17.98 91.899 17.672 92.781 17.672C94.111 17.672 94.769 18.33 94.769 19.464V19.73H92.641C90.429 19.73 89.659 20.71 89.659 21.9C89.659 23.188 90.723 24.084 92.403 24.084C93.565 24.084 94.391 23.692 94.839 23.02V24H96.113V19.52C96.113 17.49 94.965 16.51 92.935 16.51ZM92.627 23.048C91.605 23.048 90.989 22.586 90.989 21.844C90.989 21.214 91.367 20.696 92.697 20.696H94.769V21.732C94.433 22.586 93.635 23.048 92.627 23.048ZM102.562 16.51C101.386 16.51 100.434 16.944 99.8882 17.7V16.58H98.6002V24H99.9442V20.178C99.9442 18.568 100.868 17.714 102.296 17.714C103.57 17.714 104.298 18.428 104.298 19.884V24H105.642V19.73C105.642 17.546 104.368 16.51 102.562 16.51ZM110.831 16.51C109.641 16.51 108.535 16.846 107.765 17.462L108.325 18.47C108.899 17.98 109.795 17.672 110.677 17.672C112.007 17.672 112.665 18.33 112.665 19.464V19.73H110.537C108.325 19.73 107.555 20.71 107.555 21.9C107.555 23.188 108.619 24.084 110.299 24.084C111.461 24.084 112.287 23.692 112.735 23.02V24H114.009V19.52C114.009 17.49 112.861 16.51 110.831 16.51ZM110.523 23.048C109.501 23.048 108.885 22.586 108.885 21.844C108.885 21.214 109.263 20.696 110.593 20.696H112.665V21.732C112.329 22.586 111.531 23.048 110.523 23.048ZM122.362 16.58V17.728C121.732 16.916 120.724 16.51 119.618 16.51C117.476 16.51 115.852 17.952 115.852 20.094C115.852 22.236 117.476 23.692 119.618 23.692C120.682 23.692 121.648 23.314 122.292 22.544V23.132C122.292 24.812 121.494 25.624 119.744 25.624C118.652 25.624 117.574 25.246 116.888 24.658L116.244 25.694C117.056 26.422 118.428 26.8 119.786 26.8C122.306 26.8 123.636 25.61 123.636 22.992V16.58H122.362ZM119.772 22.516C118.274 22.516 117.21 21.522 117.21 20.094C117.21 18.652 118.274 17.686 119.772 17.686C121.256 17.686 122.32 18.652 122.32 20.094C122.32 21.522 121.256 22.516 119.772 22.516ZM132.91 20.332C132.91 18.05 131.384 16.51 129.242 16.51C127.1 16.51 125.518 18.092 125.518 20.29C125.518 22.502 127.114 24.084 129.508 24.084C130.74 24.084 131.762 23.664 132.434 22.88L131.692 22.012C131.146 22.614 130.418 22.908 129.55 22.908C128.08 22.908 127.03 22.04 126.862 20.738H132.882C132.896 20.612 132.91 20.444 132.91 20.332ZM129.242 17.644C130.544 17.644 131.482 18.526 131.622 19.772H126.862C127.002 18.512 127.954 17.644 129.242 17.644ZM144.058 16.51C142.798 16.51 141.762 17.042 141.202 17.882C140.712 16.958 139.76 16.51 138.626 16.51C137.506 16.51 136.596 16.93 136.064 17.686V16.58H134.776V24H136.12V20.178C136.12 18.568 137.002 17.714 138.346 17.714C139.564 17.714 140.264 18.428 140.264 19.884V24H141.608V20.178C141.608 18.568 142.49 17.714 143.834 17.714C145.052 17.714 145.752 18.428 145.752 19.884V24H147.096V19.73C147.096 17.546 145.864 16.51 144.058 16.51ZM156.316 20.332C156.316 18.05 154.79 16.51 152.648 16.51C150.506 16.51 148.924 18.092 148.924 20.29C148.924 22.502 150.52 24.084 152.914 24.084C154.146 24.084 155.168 23.664 155.84 22.88L155.098 22.012C154.552 22.614 153.824 22.908 152.956 22.908C151.486 22.908 150.436 22.04 150.268 20.738H156.288C156.302 20.612 156.316 20.444 156.316 20.332ZM152.648 17.644C153.95 17.644 154.888 18.526 155.028 19.772H150.268C150.408 18.512 151.36 17.644 152.648 17.644ZM162.144 16.51C160.968 16.51 160.016 16.944 159.47 17.7V16.58H158.182V24H159.526V20.178C159.526 18.568 160.45 17.714 161.878 17.714C163.152 17.714 163.88 18.428 163.88 19.884V24H165.224V19.73C165.224 17.546 163.95 16.51 162.144 16.51ZM171.464 22.6C171.184 22.824 170.806 22.95 170.414 22.95C169.672 22.95 169.252 22.502 169.252 21.704V17.686H171.38V16.58H169.252V14.956H167.908V16.58H166.648V17.686H167.908V21.76C167.908 23.258 168.762 24.084 170.26 24.084C170.862 24.084 171.478 23.916 171.884 23.566L171.464 22.6Z" fill="#004DFF"/>
</svg>
